<svg width="540" height="360" viewBox="0 0 540 360" fill="none" xmlns="http://www.w3.org/2000/svg">
<mask id="mask0_143:2512" style="mask-type:alpha" maskUnits="userSpaceOnUse" x="0" y="0" width="540" height="360">
<rect width="540" height="360" rx="12" fill="url(#paint0_radial_143:2512)"/>
</mask>
<g mask="url(#mask0_143:2512)">
<g clip-path="url(#clip0_143:2512)">
<path d="M23.6809 171.982V153.191L7.3923 143.786L-8.90497 153.191L-8.90497 171.982L7.3923 181.386L23.6809 171.982Z" stroke="#F9F9F9" stroke-opacity="0.04" stroke-miterlimit="10"/>
<path d="M56.2669 171.982V153.191L39.9782 143.786L23.681 153.191L23.681 171.982L39.9782 181.386L56.2669 171.982Z" stroke="#F9F9F9" stroke-opacity="0.04" stroke-miterlimit="10"/>
<path d="M88.8517 171.982V153.191L72.5631 143.786L56.2658 153.191V171.982L72.5631 181.386L88.8517 171.982Z" stroke="#F9F9F9" stroke-opacity="0.04" stroke-miterlimit="10"/>
<path d="M121.438 171.982V153.191L105.149 143.786L88.8518 153.191V171.982L105.149 181.386L121.438 171.982Z" stroke="#F9F9F9" stroke-opacity="0.04" stroke-miterlimit="10"/>
<path d="M154.024 171.982V153.191L137.735 143.786L121.438 153.191V171.982L137.735 181.386L154.024 171.982Z" stroke="#F9F9F9" stroke-opacity="0.04" stroke-miterlimit="10"/>
<path d="M186.61 171.982V153.191L170.321 143.786L154.024 153.191V171.982L170.321 181.386L186.61 171.982Z" stroke="#F9F9F9" stroke-opacity="0.04" stroke-miterlimit="10"/>
<path d="M219.196 171.982V153.191L202.907 143.786L186.61 153.191V171.982L202.907 181.386L219.196 171.982Z" stroke="#F9F9F9" stroke-opacity="0.04" stroke-miterlimit="10"/>
<path d="M251.782 171.982V153.191L235.493 143.786L219.196 153.191V171.982L235.493 181.386L251.782 171.982Z" stroke="#F9F9F9" stroke-opacity="0.04" stroke-miterlimit="10"/>
<path d="M284.368 171.982V153.191L268.079 143.786L251.782 153.191V171.982L268.079 181.386L284.368 171.982Z" stroke="#F9F9F9" stroke-opacity="0.04" stroke-miterlimit="10"/>
<path d="M316.954 171.982V153.191L300.665 143.786L284.368 153.191V171.982L300.665 181.386L316.954 171.982Z" stroke="#F9F9F9" stroke-opacity="0.04" stroke-miterlimit="10"/>
<path d="M349.539 171.982V153.191L333.251 143.786L316.954 153.191V171.982L333.251 181.386L349.539 171.982Z" stroke="#F9F9F9" stroke-opacity="0.04" stroke-miterlimit="10"/>
<path d="M382.125 171.982V153.191L365.837 143.786L349.54 153.191V171.982L365.837 181.386L382.125 171.982Z" stroke="#F9F9F9" stroke-opacity="0.04" stroke-miterlimit="10"/>
<path d="M414.711 171.982V153.191L398.423 143.786L382.126 153.191V171.982L398.423 181.386L414.711 171.982Z" stroke="#F9F9F9" stroke-opacity="0.04" stroke-miterlimit="10"/>
<path d="M447.297 171.982V153.191L431.009 143.786L414.712 153.191V171.982L431.009 181.386L447.297 171.982Z" stroke="#F9F9F9" stroke-opacity="0.04" stroke-miterlimit="10"/>
<path d="M479.883 171.982V153.191L463.595 143.786L447.297 153.191V171.982L463.595 181.386L479.883 171.982Z" stroke="#F9F9F9" stroke-opacity="0.04" stroke-miterlimit="10"/>
<path d="M512.469 171.982V153.191L496.181 143.786L479.883 153.191V171.982L496.181 181.386L512.469 171.982Z" stroke="#F9F9F9" stroke-opacity="0.04" stroke-miterlimit="10"/>
<path d="M545.055 171.982V153.191L528.767 143.786L512.469 153.191V171.982L528.767 181.386L545.055 171.982Z" stroke="#F9F9F9" stroke-opacity="0.04" stroke-miterlimit="10"/>
<path d="M23.6809 59.184V40.3931L7.3923 30.989L-8.90497 40.3931L-8.90497 59.184L7.3923 68.5881L23.6809 59.184Z" stroke="#F9F9F9" stroke-opacity="0.04" stroke-miterlimit="10"/>
<path d="M56.2669 59.184V40.3931L39.9782 30.989L23.681 40.3931L23.681 59.184L39.9782 68.5881L56.2669 59.184Z" stroke="#F9F9F9" stroke-opacity="0.04" stroke-miterlimit="10"/>
<path d="M88.8517 59.184V40.3931L72.5631 30.989L56.2658 40.3931V59.184L72.5631 68.5881L88.8517 59.184Z" stroke="#F9F9F9" stroke-opacity="0.04" stroke-miterlimit="10"/>
<path d="M121.438 59.184V40.3931L105.149 30.989L88.8518 40.3931V59.184L105.149 68.5881L121.438 59.184Z" stroke="#F9F9F9" stroke-opacity="0.04" stroke-miterlimit="10"/>
<path d="M154.024 59.184V40.3931L137.735 30.989L121.438 40.3931V59.184L137.735 68.5881L154.024 59.184Z" stroke="#F9F9F9" stroke-opacity="0.04" stroke-miterlimit="10"/>
<path d="M186.61 59.184V40.3931L170.321 30.989L154.024 40.3931V59.184L170.321 68.5881L186.61 59.184Z" stroke="#F9F9F9" stroke-opacity="0.04" stroke-miterlimit="10"/>
<path d="M219.196 59.184V40.3931L202.907 30.989L186.61 40.3931V59.184L202.907 68.5881L219.196 59.184Z" stroke="#F9F9F9" stroke-opacity="0.04" stroke-miterlimit="10"/>
<path d="M251.782 59.184V40.3931L235.493 30.989L219.196 40.3931V59.184L235.493 68.5881L251.782 59.184Z" stroke="#F9F9F9" stroke-opacity="0.04" stroke-miterlimit="10"/>
<path d="M284.368 59.184V40.3931L268.079 30.989L251.782 40.3931V59.184L268.079 68.5881L284.368 59.184Z" stroke="#F9F9F9" stroke-opacity="0.04" stroke-miterlimit="10"/>
<path d="M316.954 59.184V40.3931L300.665 30.989L284.368 40.3931V59.184L300.665 68.5881L316.954 59.184Z" stroke="#F9F9F9" stroke-opacity="0.04" stroke-miterlimit="10"/>
<path d="M349.539 59.184V40.3931L333.251 30.989L316.954 40.3931V59.184L333.251 68.5881L349.539 59.184Z" stroke="#F9F9F9" stroke-opacity="0.04" stroke-miterlimit="10"/>
<path d="M382.125 59.184V40.3931L365.837 30.989L349.54 40.3931V59.184L365.837 68.5881L382.125 59.184Z" stroke="#F9F9F9" stroke-opacity="0.04" stroke-miterlimit="10"/>
<path d="M414.711 59.184V40.3931L398.423 30.989L382.126 40.3931V59.184L398.423 68.5881L414.711 59.184Z" stroke="#F9F9F9" stroke-opacity="0.04" stroke-miterlimit="10"/>
<path d="M447.297 59.184V40.3931L431.009 30.989L414.712 40.3931V59.184L431.009 68.5881L447.297 59.184Z" stroke="#F9F9F9" stroke-opacity="0.04" stroke-miterlimit="10"/>
<path d="M479.883 59.184V40.3931L463.595 30.989L447.297 40.3931V59.184L463.595 68.5881L479.883 59.184Z" stroke="#F9F9F9" stroke-opacity="0.04" stroke-miterlimit="10"/>
<path d="M512.469 59.184V40.3931L496.181 30.989L479.883 40.3931V59.184L496.181 68.5881L512.469 59.184Z" stroke="#F9F9F9" stroke-opacity="0.04" stroke-miterlimit="10"/>
<path d="M545.055 59.184V40.3931L528.767 30.989L512.469 40.3931V59.184L528.767 68.5881L545.055 59.184Z" stroke="#F9F9F9" stroke-opacity="0.04" stroke-miterlimit="10"/>
<path d="M23.6809 284.779V265.988L7.3923 256.584L-8.90497 265.988L-8.90497 284.779L7.3923 294.183L23.6809 284.779Z" stroke="#F9F9F9" stroke-opacity="0.04" stroke-miterlimit="10"/>
<path d="M56.2669 284.779V265.988L39.9782 256.584L23.681 265.988L23.681 284.779L39.9782 294.183L56.2669 284.779Z" stroke="#F9F9F9" stroke-opacity="0.04" stroke-miterlimit="10"/>
<path d="M88.8517 284.779V265.988L72.5631 256.584L56.2658 265.988V284.779L72.5631 294.183L88.8517 284.779Z" stroke="#F9F9F9" stroke-opacity="0.04" stroke-miterlimit="10"/>
<path d="M121.438 284.779V265.988L105.149 256.584L88.8518 265.988V284.779L105.149 294.183L121.438 284.779Z" stroke="#F9F9F9" stroke-opacity="0.04" stroke-miterlimit="10"/>
<path d="M154.024 284.779V265.988L137.735 256.584L121.438 265.988V284.779L137.735 294.183L154.024 284.779Z" stroke="#F9F9F9" stroke-opacity="0.04" stroke-miterlimit="10"/>
<path d="M186.61 284.779V265.988L170.321 256.584L154.024 265.988V284.779L170.321 294.183L186.61 284.779Z" stroke="#F9F9F9" stroke-opacity="0.04" stroke-miterlimit="10"/>
<path d="M219.196 284.779V265.988L202.907 256.584L186.61 265.988V284.779L202.907 294.183L219.196 284.779Z" stroke="#F9F9F9" stroke-opacity="0.04" stroke-miterlimit="10"/>
<path d="M251.782 284.779V265.988L235.493 256.584L219.196 265.988V284.779L235.493 294.183L251.782 284.779Z" stroke="#F9F9F9" stroke-opacity="0.04" stroke-miterlimit="10"/>
<path d="M284.368 284.779V265.988L268.079 256.584L251.782 265.988V284.779L268.079 294.183L284.368 284.779Z" stroke="#F9F9F9" stroke-opacity="0.04" stroke-miterlimit="10"/>
<path d="M316.954 284.779V265.988L300.665 256.584L284.368 265.988V284.779L300.665 294.183L316.954 284.779Z" stroke="#F9F9F9" stroke-opacity="0.04" stroke-miterlimit="10"/>
<path d="M349.539 284.779V265.988L333.251 256.584L316.954 265.988V284.779L333.251 294.183L349.539 284.779Z" stroke="#F9F9F9" stroke-opacity="0.04" stroke-miterlimit="10"/>
<path d="M382.125 284.779V265.988L365.837 256.584L349.54 265.988V284.779L365.837 294.183L382.125 284.779Z" stroke="#F9F9F9" stroke-opacity="0.04" stroke-miterlimit="10"/>
<path d="M414.711 284.779V265.988L398.423 256.584L382.126 265.988V284.779L398.423 294.183L414.711 284.779Z" stroke="#F9F9F9" stroke-opacity="0.04" stroke-miterlimit="10"/>
<path d="M447.297 284.779V265.988L431.009 256.584L414.712 265.988V284.779L431.009 294.183L447.297 284.779Z" stroke="#F9F9F9" stroke-opacity="0.04" stroke-miterlimit="10"/>
<path d="M479.883 284.779V265.988L463.595 256.584L447.297 265.988V284.779L463.595 294.183L479.883 284.779Z" stroke="#F9F9F9" stroke-opacity="0.04" stroke-miterlimit="10"/>
<path d="M512.469 284.779V265.988L496.181 256.584L479.883 265.988V284.779L496.181 294.183L512.469 284.779Z" stroke="#F9F9F9" stroke-opacity="0.04" stroke-miterlimit="10"/>
<path d="M545.055 284.779V265.988L528.767 256.584L512.469 265.988V284.779L528.767 294.183L545.055 284.779Z" stroke="#F9F9F9" stroke-opacity="0.04" stroke-miterlimit="10"/>
<path d="M39.9739 200.181V181.39L23.6853 171.986L7.388 181.39L7.388 200.181L23.6853 209.585L39.9739 200.181Z" stroke="#F9F9F9" stroke-opacity="0.04" stroke-miterlimit="10"/>
<path d="M72.5599 200.181V181.39L56.2713 171.986L39.974 181.39V200.181L56.2713 209.585L72.5599 200.181Z" stroke="#F9F9F9" stroke-opacity="0.04" stroke-miterlimit="10"/>
<path d="M105.145 200.181V181.39L88.8561 171.986L72.5588 181.39V200.181L88.8561 209.585L105.145 200.181Z" stroke="#F9F9F9" stroke-opacity="0.04" stroke-miterlimit="10"/>
<path d="M137.731 200.181V181.39L121.442 171.986L105.145 181.39V200.181L121.442 209.585L137.731 200.181Z" stroke="#F9F9F9" stroke-opacity="0.04" stroke-miterlimit="10"/>
<path d="M170.317 200.181V181.39L154.028 171.986L137.731 181.39V200.181L154.028 209.585L170.317 200.181Z" stroke="#F9F9F9" stroke-opacity="0.04" stroke-miterlimit="10"/>
<path d="M202.903 200.181V181.39L186.614 171.986L170.317 181.39V200.181L186.614 209.585L202.903 200.181Z" stroke="#F9F9F9" stroke-opacity="0.04" stroke-miterlimit="10"/>
<path d="M235.489 200.181V181.39L219.2 171.986L202.903 181.39V200.181L219.2 209.585L235.489 200.181Z" stroke="#F9F9F9" stroke-opacity="0.04" stroke-miterlimit="10"/>
<path d="M268.075 200.181V181.39L251.786 171.986L235.489 181.39V200.181L251.786 209.585L268.075 200.181Z" stroke="#F9F9F9" stroke-opacity="0.04" stroke-miterlimit="10"/>
<path d="M300.661 200.181V181.39L284.372 171.986L268.075 181.39V200.181L284.372 209.585L300.661 200.181Z" stroke="#F9F9F9" stroke-opacity="0.04" stroke-miterlimit="10"/>
<path d="M333.247 200.181V181.39L316.958 171.986L300.661 181.39V200.181L316.958 209.585L333.247 200.181Z" stroke="#F9F9F9" stroke-opacity="0.04" stroke-miterlimit="10"/>
<path d="M365.832 200.181V181.39L349.544 171.986L333.247 181.39V200.181L349.544 209.585L365.832 200.181Z" stroke="#F9F9F9" stroke-opacity="0.04" stroke-miterlimit="10"/>
<path d="M398.418 200.181V181.39L382.13 171.986L365.833 181.39V200.181L382.13 209.585L398.418 200.181Z" stroke="#F9F9F9" stroke-opacity="0.04" stroke-miterlimit="10"/>
<path d="M431.004 200.181V181.39L414.716 171.986L398.419 181.39V200.181L414.716 209.585L431.004 200.181Z" stroke="#F9F9F9" stroke-opacity="0.04" stroke-miterlimit="10"/>
<path d="M463.59 200.181V181.39L447.302 171.986L431.004 181.39V200.181L447.302 209.585L463.59 200.181Z" stroke="#F9F9F9" stroke-opacity="0.04" stroke-miterlimit="10"/>
<path d="M496.176 200.181V181.39L479.888 171.986L463.59 181.39V200.181L479.888 209.585L496.176 200.181Z" stroke="#F9F9F9" stroke-opacity="0.04" stroke-miterlimit="10"/>
<path d="M528.762 200.181V181.39L512.474 171.986L496.176 181.39V200.181L512.474 209.585L528.762 200.181Z" stroke="#F9F9F9" stroke-opacity="0.04" stroke-miterlimit="10"/>
<path d="M39.9739 87.383V68.5921L23.6853 59.188L7.388 68.5921L7.388 87.383L23.6853 96.7871L39.9739 87.383Z" stroke="#F9F9F9" stroke-opacity="0.04" stroke-miterlimit="10"/>
<path d="M72.5599 87.383V68.5921L56.2713 59.188L39.974 68.5921V87.383L56.2713 96.7871L72.5599 87.383Z" stroke="#F9F9F9" stroke-opacity="0.04" stroke-miterlimit="10"/>
<path d="M105.145 87.383V68.5921L88.8561 59.188L72.5588 68.5921V87.383L88.8561 96.7871L105.145 87.383Z" stroke="#F9F9F9" stroke-opacity="0.04" stroke-miterlimit="10"/>
<path d="M137.731 87.383V68.5921L121.442 59.188L105.145 68.5921V87.383L121.442 96.7871L137.731 87.383Z" stroke="#F9F9F9" stroke-opacity="0.04" stroke-miterlimit="10"/>
<path d="M170.317 87.383V68.5921L154.028 59.188L137.731 68.5921V87.383L154.028 96.7871L170.317 87.383Z" stroke="#F9F9F9" stroke-opacity="0.04" stroke-miterlimit="10"/>
<path d="M202.903 87.383V68.5921L186.614 59.188L170.317 68.5921V87.383L186.614 96.7871L202.903 87.383Z" stroke="#F9F9F9" stroke-opacity="0.04" stroke-miterlimit="10"/>
<path d="M235.489 87.383V68.5921L219.2 59.188L202.903 68.5921V87.383L219.2 96.7871L235.489 87.383Z" stroke="#F9F9F9" stroke-opacity="0.04" stroke-miterlimit="10"/>
<path d="M268.075 87.383V68.5921L251.786 59.188L235.489 68.5921V87.383L251.786 96.7871L268.075 87.383Z" stroke="#F9F9F9" stroke-opacity="0.04" stroke-miterlimit="10"/>
<path d="M300.661 87.383V68.5921L284.372 59.188L268.075 68.5921V87.383L284.372 96.7871L300.661 87.383Z" stroke="#F9F9F9" stroke-opacity="0.04" stroke-miterlimit="10"/>
<path d="M333.247 87.383V68.5921L316.958 59.188L300.661 68.5921V87.383L316.958 96.7871L333.247 87.383Z" stroke="#F9F9F9" stroke-opacity="0.04" stroke-miterlimit="10"/>
<path d="M365.832 87.383V68.5921L349.544 59.188L333.247 68.5921V87.383L349.544 96.7871L365.832 87.383Z" stroke="#F9F9F9" stroke-opacity="0.04" stroke-miterlimit="10"/>
<path d="M398.418 87.383V68.5921L382.13 59.188L365.833 68.5921V87.383L382.13 96.7871L398.418 87.383Z" stroke="#F9F9F9" stroke-opacity="0.04" stroke-miterlimit="10"/>
<path d="M431.004 87.383V68.5921L414.716 59.188L398.419 68.5921V87.383L414.716 96.7871L431.004 87.383Z" stroke="#F9F9F9" stroke-opacity="0.04" stroke-miterlimit="10"/>
<path d="M463.59 87.383V68.5921L447.302 59.188L431.004 68.5921V87.383L447.302 96.7871L463.59 87.383Z" stroke="#F9F9F9" stroke-opacity="0.04" stroke-miterlimit="10"/>
<path d="M496.176 87.383V68.5921L479.888 59.188L463.59 68.5921V87.383L479.888 96.7871L496.176 87.383Z" stroke="#F9F9F9" stroke-opacity="0.04" stroke-miterlimit="10"/>
<path d="M528.762 87.383V68.5921L512.474 59.188L496.176 68.5921V87.383L512.474 96.7871L528.762 87.383Z" stroke="#F9F9F9" stroke-opacity="0.04" stroke-miterlimit="10"/>
<path d="M39.9739 312.978V294.187L23.6853 284.783L7.388 294.187L7.388 312.978L23.6853 322.382L39.9739 312.978Z" stroke="#F9F9F9" stroke-opacity="0.04" stroke-miterlimit="10"/>
<path d="M72.5599 312.978V294.187L56.2713 284.783L39.974 294.187V312.978L56.2713 322.382L72.5599 312.978Z" stroke="#F9F9F9" stroke-opacity="0.04" stroke-miterlimit="10"/>
<path d="M105.145 312.978V294.187L88.8561 284.783L72.5588 294.187V312.978L88.8561 322.382L105.145 312.978Z" stroke="#F9F9F9" stroke-opacity="0.04" stroke-miterlimit="10"/>
<path d="M137.731 312.978V294.187L121.442 284.783L105.145 294.187V312.978L121.442 322.382L137.731 312.978Z" stroke="#F9F9F9" stroke-opacity="0.04" stroke-miterlimit="10"/>
<path d="M170.317 312.978V294.187L154.028 284.783L137.731 294.187V312.978L154.028 322.382L170.317 312.978Z" stroke="#F9F9F9" stroke-opacity="0.04" stroke-miterlimit="10"/>
<path d="M202.903 312.978V294.187L186.614 284.783L170.317 294.187V312.978L186.614 322.382L202.903 312.978Z" stroke="#F9F9F9" stroke-opacity="0.04" stroke-miterlimit="10"/>
<path d="M235.489 312.978V294.187L219.2 284.783L202.903 294.187V312.978L219.2 322.382L235.489 312.978Z" stroke="#F9F9F9" stroke-opacity="0.04" stroke-miterlimit="10"/>
<path d="M268.075 312.978V294.187L251.786 284.783L235.489 294.187V312.978L251.786 322.382L268.075 312.978Z" stroke="#F9F9F9" stroke-opacity="0.04" stroke-miterlimit="10"/>
<path d="M300.661 312.978V294.187L284.372 284.783L268.075 294.187V312.978L284.372 322.382L300.661 312.978Z" stroke="#F9F9F9" stroke-opacity="0.04" stroke-miterlimit="10"/>
<path d="M333.247 312.978V294.187L316.958 284.783L300.661 294.187V312.978L316.958 322.382L333.247 312.978Z" stroke="#F9F9F9" stroke-opacity="0.04" stroke-miterlimit="10"/>
<path d="M365.832 312.978V294.187L349.544 284.783L333.247 294.187V312.978L349.544 322.382L365.832 312.978Z" stroke="#F9F9F9" stroke-opacity="0.04" stroke-miterlimit="10"/>
<path d="M398.418 312.978V294.187L382.13 284.783L365.833 294.187V312.978L382.13 322.382L398.418 312.978Z" stroke="#F9F9F9" stroke-opacity="0.04" stroke-miterlimit="10"/>
<path d="M431.004 312.978V294.187L414.716 284.783L398.419 294.187V312.978L414.716 322.382L431.004 312.978Z" stroke="#F9F9F9" stroke-opacity="0.04" stroke-miterlimit="10"/>
<path d="M463.59 312.978V294.187L447.302 284.783L431.004 294.187V312.978L447.302 322.382L463.59 312.978Z" stroke="#F9F9F9" stroke-opacity="0.04" stroke-miterlimit="10"/>
<path d="M496.176 312.978V294.187L479.888 284.783L463.59 294.187V312.978L479.888 322.382L496.176 312.978Z" stroke="#F9F9F9" stroke-opacity="0.04" stroke-miterlimit="10"/>
<path d="M528.762 312.978V294.187L512.474 284.783L496.176 294.187V312.978L512.474 322.382L528.762 312.978Z" stroke="#F9F9F9" stroke-opacity="0.04" stroke-miterlimit="10"/>
<path d="M23.6809 2.78462V-16.0063L7.3923 -25.4104L-8.90497 -16.0063L-8.90497 2.78462L7.3923 12.1887L23.6809 2.78462Z" stroke="#F9F9F9" stroke-opacity="0.04" stroke-miterlimit="10"/>
<path d="M56.2669 2.78462V-16.0063L39.9782 -25.4104L23.681 -16.0063L23.681 2.78462L39.9782 12.1887L56.2669 2.78462Z" stroke="#F9F9F9" stroke-opacity="0.04" stroke-miterlimit="10"/>
<path d="M88.8517 2.78462V-16.0063L72.5631 -25.4104L56.2658 -16.0063V2.78462L72.5631 12.1887L88.8517 2.78462Z" stroke="#F9F9F9" stroke-opacity="0.04" stroke-miterlimit="10"/>
<path d="M121.438 2.78462V-16.0063L105.149 -25.4104L88.8518 -16.0063V2.78462L105.149 12.1887L121.438 2.78462Z" stroke="#F9F9F9" stroke-opacity="0.04" stroke-miterlimit="10"/>
<path d="M154.024 2.78462V-16.0063L137.735 -25.4104L121.438 -16.0063V2.78462L137.735 12.1887L154.024 2.78462Z" stroke="#F9F9F9" stroke-opacity="0.04" stroke-miterlimit="10"/>
<path d="M186.61 2.78462V-16.0063L170.321 -25.4104L154.024 -16.0063V2.78462L170.321 12.1887L186.61 2.78462Z" stroke="#F9F9F9" stroke-opacity="0.04" stroke-miterlimit="10"/>
<path d="M219.196 2.78462V-16.0063L202.907 -25.4104L186.61 -16.0063V2.78462L202.907 12.1887L219.196 2.78462Z" stroke="#F9F9F9" stroke-opacity="0.04" stroke-miterlimit="10"/>
<path d="M251.782 2.78462V-16.0063L235.493 -25.4104L219.196 -16.0063V2.78462L235.493 12.1887L251.782 2.78462Z" stroke="#F9F9F9" stroke-opacity="0.04" stroke-miterlimit="10"/>
<path d="M284.368 2.78462V-16.0063L268.079 -25.4104L251.782 -16.0063V2.78462L268.079 12.1887L284.368 2.78462Z" stroke="#F9F9F9" stroke-opacity="0.04" stroke-miterlimit="10"/>
<path d="M316.954 2.78462V-16.0063L300.665 -25.4104L284.368 -16.0063V2.78462L300.665 12.1887L316.954 2.78462Z" stroke="#F9F9F9" stroke-opacity="0.04" stroke-miterlimit="10"/>
<path d="M349.539 2.78462V-16.0063L333.251 -25.4104L316.954 -16.0063V2.78462L333.251 12.1887L349.539 2.78462Z" stroke="#F9F9F9" stroke-opacity="0.04" stroke-miterlimit="10"/>
<path d="M382.125 2.78462V-16.0063L365.837 -25.4104L349.54 -16.0063V2.78462L365.837 12.1887L382.125 2.78462Z" stroke="#F9F9F9" stroke-opacity="0.04" stroke-miterlimit="10"/>
<path d="M414.711 2.78462V-16.0063L398.423 -25.4104L382.126 -16.0063V2.78462L398.423 12.1887L414.711 2.78462Z" stroke="#F9F9F9" stroke-opacity="0.04" stroke-miterlimit="10"/>
<path d="M447.297 2.78462V-16.0063L431.009 -25.4104L414.712 -16.0063V2.78462L431.009 12.1887L447.297 2.78462Z" stroke="#F9F9F9" stroke-opacity="0.04" stroke-miterlimit="10"/>
<path d="M479.883 2.78462V-16.0063L463.595 -25.4104L447.297 -16.0063V2.78462L463.595 12.1887L479.883 2.78462Z" stroke="#F9F9F9" stroke-opacity="0.04" stroke-miterlimit="10"/>
<path d="M512.469 2.78462V-16.0063L496.181 -25.4104L479.883 -16.0063V2.78462L496.181 12.1887L512.469 2.78462Z" stroke="#F9F9F9" stroke-opacity="0.04" stroke-miterlimit="10"/>
<path d="M545.055 2.78462V-16.0063L528.767 -25.4104L512.469 -16.0063V2.78462L528.767 12.1887L545.055 2.78462Z" stroke="#F9F9F9" stroke-opacity="0.04" stroke-miterlimit="10"/>
<path d="M39.9739 30.9849V12.194L23.6853 2.78992L7.388 12.194L7.388 30.9849L23.6853 40.389L39.9739 30.9849Z" stroke="#F9F9F9" stroke-opacity="0.04" stroke-miterlimit="10"/>
<path d="M72.5599 30.9849V12.194L56.2713 2.78992L39.974 12.194V30.9849L56.2713 40.389L72.5599 30.9849Z" stroke="#F9F9F9" stroke-opacity="0.04" stroke-miterlimit="10"/>
<path d="M105.145 30.9849V12.194L88.8561 2.78992L72.5588 12.194V30.9849L88.8561 40.389L105.145 30.9849Z" stroke="#F9F9F9" stroke-opacity="0.04" stroke-miterlimit="10"/>
<path d="M137.731 30.9849V12.194L121.442 2.78992L105.145 12.194V30.9849L121.442 40.389L137.731 30.9849Z" stroke="#F9F9F9" stroke-opacity="0.04" stroke-miterlimit="10"/>
<path d="M170.317 30.9849V12.194L154.028 2.78992L137.731 12.194V30.9849L154.028 40.389L170.317 30.9849Z" stroke="#F9F9F9" stroke-opacity="0.04" stroke-miterlimit="10"/>
<path d="M202.903 30.9849V12.194L186.614 2.78992L170.317 12.194V30.9849L186.614 40.389L202.903 30.9849Z" stroke="#F9F9F9" stroke-opacity="0.04" stroke-miterlimit="10"/>
<path d="M235.489 30.9849V12.194L219.2 2.78992L202.903 12.194V30.9849L219.2 40.389L235.489 30.9849Z" stroke="#F9F9F9" stroke-opacity="0.04" stroke-miterlimit="10"/>
<path d="M268.075 30.9849V12.194L251.786 2.78992L235.489 12.194V30.9849L251.786 40.389L268.075 30.9849Z" stroke="#F9F9F9" stroke-opacity="0.04" stroke-miterlimit="10"/>
<path d="M300.661 30.9849V12.194L284.372 2.78992L268.075 12.194V30.9849L284.372 40.389L300.661 30.9849Z" stroke="#F9F9F9" stroke-opacity="0.04" stroke-miterlimit="10"/>
<path d="M333.247 30.9849V12.194L316.958 2.78992L300.661 12.194V30.9849L316.958 40.389L333.247 30.9849Z" stroke="#F9F9F9" stroke-opacity="0.04" stroke-miterlimit="10"/>
<path d="M365.832 30.9849V12.194L349.544 2.78992L333.247 12.194V30.9849L349.544 40.389L365.832 30.9849Z" stroke="#F9F9F9" stroke-opacity="0.04" stroke-miterlimit="10"/>
<path d="M398.418 30.9849V12.194L382.13 2.78992L365.833 12.194V30.9849L382.13 40.389L398.418 30.9849Z" stroke="#F9F9F9" stroke-opacity="0.04" stroke-miterlimit="10"/>
<path d="M431.004 30.9849V12.194L414.716 2.78992L398.419 12.194V30.9849L414.716 40.389L431.004 30.9849Z" stroke="#F9F9F9" stroke-opacity="0.04" stroke-miterlimit="10"/>
<path d="M463.59 30.9849V12.194L447.302 2.78992L431.004 12.194V30.9849L447.302 40.389L463.59 30.9849Z" stroke="#F9F9F9" stroke-opacity="0.04" stroke-miterlimit="10"/>
<path d="M496.176 30.9849V12.194L479.888 2.78992L463.59 12.194V30.9849L479.888 40.389L496.176 30.9849Z" stroke="#F9F9F9" stroke-opacity="0.04" stroke-miterlimit="10"/>
<path d="M528.762 30.9849V12.194L512.474 2.78992L496.176 12.194V30.9849L512.474 40.389L528.762 30.9849Z" stroke="#F9F9F9" stroke-opacity="0.04" stroke-miterlimit="10"/>
<path d="M23.6809 228.38V209.589L7.3923 200.185L-8.90497 209.589L-8.90497 228.38L7.3923 237.784L23.6809 228.38Z" stroke="#F9F9F9" stroke-opacity="0.04" stroke-miterlimit="10"/>
<path d="M56.2669 228.38V209.589L39.9782 200.185L23.681 209.589L23.681 228.38L39.9782 237.784L56.2669 228.38Z" stroke="#F9F9F9" stroke-opacity="0.04" stroke-miterlimit="10"/>
<path d="M88.8517 228.38V209.589L72.5631 200.185L56.2658 209.589V228.38L72.5631 237.784L88.8517 228.38Z" stroke="#F9F9F9" stroke-opacity="0.04" stroke-miterlimit="10"/>
<path d="M121.438 228.38V209.589L105.149 200.185L88.8518 209.589V228.38L105.149 237.784L121.438 228.38Z" stroke="#F9F9F9" stroke-opacity="0.04" stroke-miterlimit="10"/>
<path d="M154.024 228.38V209.589L137.735 200.185L121.438 209.589V228.38L137.735 237.784L154.024 228.38Z" stroke="#F9F9F9" stroke-opacity="0.04" stroke-miterlimit="10"/>
<path d="M186.61 228.38V209.589L170.321 200.185L154.024 209.589V228.38L170.321 237.784L186.61 228.38Z" stroke="#F9F9F9" stroke-opacity="0.04" stroke-miterlimit="10"/>
<path d="M219.196 228.38V209.589L202.907 200.185L186.61 209.589V228.38L202.907 237.784L219.196 228.38Z" stroke="#F9F9F9" stroke-opacity="0.04" stroke-miterlimit="10"/>
<path d="M251.782 228.38V209.589L235.493 200.185L219.196 209.589V228.38L235.493 237.784L251.782 228.38Z" stroke="#F9F9F9" stroke-opacity="0.04" stroke-miterlimit="10"/>
<path d="M284.368 228.38V209.589L268.079 200.185L251.782 209.589V228.38L268.079 237.784L284.368 228.38Z" stroke="#F9F9F9" stroke-opacity="0.04" stroke-miterlimit="10"/>
<path d="M316.954 228.38V209.589L300.665 200.185L284.368 209.589V228.38L300.665 237.784L316.954 228.38Z" stroke="#F9F9F9" stroke-opacity="0.04" stroke-miterlimit="10"/>
<path d="M349.539 228.38V209.589L333.251 200.185L316.954 209.589V228.38L333.251 237.784L349.539 228.38Z" stroke="#F9F9F9" stroke-opacity="0.04" stroke-miterlimit="10"/>
<path d="M382.125 228.38V209.589L365.837 200.185L349.54 209.589V228.38L365.837 237.784L382.125 228.38Z" stroke="#F9F9F9" stroke-opacity="0.04" stroke-miterlimit="10"/>
<path d="M414.711 228.38V209.589L398.423 200.185L382.126 209.589V228.38L398.423 237.784L414.711 228.38Z" stroke="#F9F9F9" stroke-opacity="0.04" stroke-miterlimit="10"/>
<path d="M447.297 228.38V209.589L431.009 200.185L414.712 209.589V228.38L431.009 237.784L447.297 228.38Z" stroke="#F9F9F9" stroke-opacity="0.04" stroke-miterlimit="10"/>
<path d="M479.883 228.38V209.589L463.595 200.185L447.297 209.589V228.38L463.595 237.784L479.883 228.38Z" stroke="#F9F9F9" stroke-opacity="0.04" stroke-miterlimit="10"/>
<path d="M512.469 228.38V209.589L496.181 200.185L479.883 209.589V228.38L496.181 237.784L512.469 228.38Z" stroke="#F9F9F9" stroke-opacity="0.04" stroke-miterlimit="10"/>
<path d="M545.055 228.38V209.589L528.767 200.185L512.469 209.589V228.38L528.767 237.784L545.055 228.38Z" stroke="#F9F9F9" stroke-opacity="0.04" stroke-miterlimit="10"/>
<path d="M39.9739 256.579V237.788L23.6853 228.384L7.388 237.788L7.388 256.579L23.6853 265.983L39.9739 256.579Z" stroke="#F9F9F9" stroke-opacity="0.04" stroke-miterlimit="10"/>
<path d="M72.5599 256.579V237.788L56.2713 228.384L39.974 237.788V256.579L56.2713 265.983L72.5599 256.579Z" stroke="#F9F9F9" stroke-opacity="0.04" stroke-miterlimit="10"/>
<path d="M105.145 256.579V237.788L88.8561 228.384L72.5588 237.788V256.579L88.8561 265.983L105.145 256.579Z" stroke="#F9F9F9" stroke-opacity="0.04" stroke-miterlimit="10"/>
<path d="M137.731 256.579V237.788L121.442 228.384L105.145 237.788V256.579L121.442 265.983L137.731 256.579Z" stroke="#F9F9F9" stroke-opacity="0.04" stroke-miterlimit="10"/>
<path d="M170.317 256.579V237.788L154.028 228.384L137.731 237.788V256.579L154.028 265.983L170.317 256.579Z" stroke="#F9F9F9" stroke-opacity="0.04" stroke-miterlimit="10"/>
<path d="M202.903 256.579V237.788L186.614 228.384L170.317 237.788V256.579L186.614 265.983L202.903 256.579Z" stroke="#F9F9F9" stroke-opacity="0.04" stroke-miterlimit="10"/>
<path d="M235.489 256.579V237.788L219.2 228.384L202.903 237.788V256.579L219.2 265.983L235.489 256.579Z" stroke="#F9F9F9" stroke-opacity="0.04" stroke-miterlimit="10"/>
<path d="M268.075 256.579V237.788L251.786 228.384L235.489 237.788V256.579L251.786 265.983L268.075 256.579Z" stroke="#F9F9F9" stroke-opacity="0.04" stroke-miterlimit="10"/>
<path d="M300.661 256.579V237.788L284.372 228.384L268.075 237.788V256.579L284.372 265.983L300.661 256.579Z" stroke="#F9F9F9" stroke-opacity="0.04" stroke-miterlimit="10"/>
<path d="M333.247 256.579V237.788L316.958 228.384L300.661 237.788V256.579L316.958 265.983L333.247 256.579Z" stroke="#F9F9F9" stroke-opacity="0.04" stroke-miterlimit="10"/>
<path d="M365.832 256.579V237.788L349.544 228.384L333.247 237.788V256.579L349.544 265.983L365.832 256.579Z" stroke="#F9F9F9" stroke-opacity="0.04" stroke-miterlimit="10"/>
<path d="M398.418 256.579V237.788L382.13 228.384L365.833 237.788V256.579L382.13 265.983L398.418 256.579Z" stroke="#F9F9F9" stroke-opacity="0.04" stroke-miterlimit="10"/>
<path d="M431.004 256.579V237.788L414.716 228.384L398.419 237.788V256.579L414.716 265.983L431.004 256.579Z" stroke="#F9F9F9" stroke-opacity="0.04" stroke-miterlimit="10"/>
<path d="M463.59 256.579V237.788L447.302 228.384L431.004 237.788V256.579L447.302 265.983L463.59 256.579Z" stroke="#F9F9F9" stroke-opacity="0.04" stroke-miterlimit="10"/>
<path d="M496.176 256.579V237.788L479.888 228.384L463.59 237.788V256.579L479.888 265.983L496.176 256.579Z" stroke="#F9F9F9" stroke-opacity="0.04" stroke-miterlimit="10"/>
<path d="M528.762 256.579V237.788L512.474 228.384L496.176 237.788V256.579L512.474 265.983L528.762 256.579Z" stroke="#F9F9F9" stroke-opacity="0.04" stroke-miterlimit="10"/>
<path d="M23.6809 115.582V96.7913L7.3923 87.3872L-8.90497 96.7913L-8.90497 115.582L7.3923 124.986L23.6809 115.582Z" stroke="#F9F9F9" stroke-opacity="0.04" stroke-miterlimit="10"/>
<path d="M56.2669 115.582V96.7913L39.9782 87.3872L23.681 96.7913L23.681 115.582L39.9782 124.986L56.2669 115.582Z" stroke="#F9F9F9" stroke-opacity="0.04" stroke-miterlimit="10"/>
<path d="M88.8517 115.582V96.7913L72.5631 87.3872L56.2658 96.7913V115.582L72.5631 124.986L88.8517 115.582Z" stroke="#F9F9F9" stroke-opacity="0.04" stroke-miterlimit="10"/>
<path d="M121.438 115.582V96.7913L105.149 87.3872L88.8518 96.7913V115.582L105.149 124.986L121.438 115.582Z" stroke="#F9F9F9" stroke-opacity="0.04" stroke-miterlimit="10"/>
<path d="M154.024 115.582V96.7913L137.735 87.3872L121.438 96.7913V115.582L137.735 124.986L154.024 115.582Z" stroke="#F9F9F9" stroke-opacity="0.04" stroke-miterlimit="10"/>
<path d="M186.61 115.582V96.7913L170.321 87.3872L154.024 96.7913V115.582L170.321 124.986L186.61 115.582Z" stroke="#F9F9F9" stroke-opacity="0.04" stroke-miterlimit="10"/>
<path d="M219.196 115.582V96.7913L202.907 87.3872L186.61 96.7913V115.582L202.907 124.986L219.196 115.582Z" stroke="#F9F9F9" stroke-opacity="0.04" stroke-miterlimit="10"/>
<path d="M251.782 115.582V96.7913L235.493 87.3872L219.196 96.7913V115.582L235.493 124.986L251.782 115.582Z" stroke="#F9F9F9" stroke-opacity="0.04" stroke-miterlimit="10"/>
<path d="M284.368 115.582V96.7913L268.079 87.3872L251.782 96.7913V115.582L268.079 124.986L284.368 115.582Z" stroke="#F9F9F9" stroke-opacity="0.04" stroke-miterlimit="10"/>
<path d="M316.954 115.582V96.7913L300.665 87.3872L284.368 96.7913V115.582L300.665 124.986L316.954 115.582Z" stroke="#F9F9F9" stroke-opacity="0.04" stroke-miterlimit="10"/>
<path d="M349.539 115.582V96.7913L333.251 87.3872L316.954 96.7913V115.582L333.251 124.986L349.539 115.582Z" stroke="#F9F9F9" stroke-opacity="0.04" stroke-miterlimit="10"/>
<path d="M382.125 115.582V96.7913L365.837 87.3872L349.54 96.7913V115.582L365.837 124.986L382.125 115.582Z" stroke="#F9F9F9" stroke-opacity="0.04" stroke-miterlimit="10"/>
<path d="M414.711 115.582V96.7913L398.423 87.3872L382.126 96.7913V115.582L398.423 124.986L414.711 115.582Z" stroke="#F9F9F9" stroke-opacity="0.04" stroke-miterlimit="10"/>
<path d="M447.297 115.582V96.7913L431.009 87.3872L414.712 96.7913V115.582L431.009 124.986L447.297 115.582Z" stroke="#F9F9F9" stroke-opacity="0.04" stroke-miterlimit="10"/>
<path d="M479.883 115.582V96.7913L463.595 87.3872L447.297 96.7913V115.582L463.595 124.986L479.883 115.582Z" stroke="#F9F9F9" stroke-opacity="0.04" stroke-miterlimit="10"/>
<path d="M512.469 115.582V96.7913L496.181 87.3872L479.883 96.7913V115.582L496.181 124.986L512.469 115.582Z" stroke="#F9F9F9" stroke-opacity="0.04" stroke-miterlimit="10"/>
<path d="M545.055 115.582V96.7913L528.767 87.3872L512.469 96.7913V115.582L528.767 124.986L545.055 115.582Z" stroke="#F9F9F9" stroke-opacity="0.04" stroke-miterlimit="10"/>
<path d="M39.9739 143.782V124.992L23.6853 115.587L7.388 124.992L7.388 143.782L23.6853 153.187L39.9739 143.782Z" stroke="#F9F9F9" stroke-opacity="0.04" stroke-miterlimit="10"/>
<path d="M72.5599 143.782V124.992L56.2713 115.587L39.974 124.992V143.782L56.2713 153.187L72.5599 143.782Z" stroke="#F9F9F9" stroke-opacity="0.04" stroke-miterlimit="10"/>
<path d="M105.145 143.782V124.992L88.8561 115.587L72.5588 124.992V143.782L88.8561 153.187L105.145 143.782Z" stroke="#F9F9F9" stroke-opacity="0.04" stroke-miterlimit="10"/>
<path d="M137.731 143.782V124.992L121.442 115.587L105.145 124.992V143.782L121.442 153.187L137.731 143.782Z" stroke="#F9F9F9" stroke-opacity="0.04" stroke-miterlimit="10"/>
<path d="M170.317 143.782V124.992L154.028 115.587L137.731 124.992V143.782L154.028 153.187L170.317 143.782Z" stroke="#F9F9F9" stroke-opacity="0.04" stroke-miterlimit="10"/>
<path d="M202.903 143.782V124.992L186.614 115.587L170.317 124.992V143.782L186.614 153.187L202.903 143.782Z" stroke="#F9F9F9" stroke-opacity="0.04" stroke-miterlimit="10"/>
<path d="M235.489 143.782V124.992L219.2 115.587L202.903 124.992V143.782L219.2 153.187L235.489 143.782Z" stroke="#F9F9F9" stroke-opacity="0.04" stroke-miterlimit="10"/>
<path d="M268.075 143.782V124.992L251.786 115.587L235.489 124.992V143.782L251.786 153.187L268.075 143.782Z" stroke="#F9F9F9" stroke-opacity="0.04" stroke-miterlimit="10"/>
<path d="M300.661 143.782V124.992L284.372 115.587L268.075 124.992V143.782L284.372 153.187L300.661 143.782Z" stroke="#F9F9F9" stroke-opacity="0.04" stroke-miterlimit="10"/>
<path d="M333.247 143.782V124.992L316.958 115.587L300.661 124.992V143.782L316.958 153.187L333.247 143.782Z" stroke="#F9F9F9" stroke-opacity="0.04" stroke-miterlimit="10"/>
<path d="M365.832 143.782V124.992L349.544 115.587L333.247 124.992V143.782L349.544 153.187L365.832 143.782Z" stroke="#F9F9F9" stroke-opacity="0.04" stroke-miterlimit="10"/>
<path d="M398.418 143.782V124.992L382.13 115.587L365.833 124.992V143.782L382.13 153.187L398.418 143.782Z" stroke="#F9F9F9" stroke-opacity="0.04" stroke-miterlimit="10"/>
<path d="M431.004 143.782V124.992L414.716 115.587L398.419 124.992V143.782L414.716 153.187L431.004 143.782Z" stroke="#F9F9F9" stroke-opacity="0.04" stroke-miterlimit="10"/>
<path d="M463.59 143.782V124.992L447.302 115.587L431.004 124.992V143.782L447.302 153.187L463.59 143.782Z" stroke="#F9F9F9" stroke-opacity="0.04" stroke-miterlimit="10"/>
<path d="M496.176 143.782V124.992L479.888 115.587L463.59 124.992V143.782L479.888 153.187L496.176 143.782Z" stroke="#F9F9F9" stroke-opacity="0.04" stroke-miterlimit="10"/>
<path d="M528.762 143.782V124.992L512.474 115.587L496.176 124.992V143.782L512.474 153.187L528.762 143.782Z" stroke="#F9F9F9" stroke-opacity="0.04" stroke-miterlimit="10"/>
<path d="M23.6809 341.177V322.386L7.3923 312.982L-8.90497 322.386L-8.90497 341.177L7.3923 350.581L23.6809 341.177Z" stroke="#F9F9F9" stroke-opacity="0.04" stroke-miterlimit="10"/>
<path d="M56.2669 341.177V322.386L39.9782 312.982L23.681 322.386L23.681 341.177L39.9782 350.581L56.2669 341.177Z" stroke="#F9F9F9" stroke-opacity="0.04" stroke-miterlimit="10"/>
<path d="M88.8517 341.177V322.386L72.5631 312.982L56.2658 322.386V341.177L72.5631 350.581L88.8517 341.177Z" stroke="#F9F9F9" stroke-opacity="0.04" stroke-miterlimit="10"/>
<path d="M121.438 341.177V322.386L105.149 312.982L88.8518 322.386V341.177L105.149 350.581L121.438 341.177Z" stroke="#F9F9F9" stroke-opacity="0.04" stroke-miterlimit="10"/>
<path d="M154.024 341.177V322.386L137.735 312.982L121.438 322.386V341.177L137.735 350.581L154.024 341.177Z" stroke="#F9F9F9" stroke-opacity="0.04" stroke-miterlimit="10"/>
<path d="M186.61 341.177V322.386L170.321 312.982L154.024 322.386V341.177L170.321 350.581L186.61 341.177Z" stroke="#F9F9F9" stroke-opacity="0.04" stroke-miterlimit="10"/>
<path d="M219.196 341.177V322.386L202.907 312.982L186.61 322.386V341.177L202.907 350.581L219.196 341.177Z" stroke="#F9F9F9" stroke-opacity="0.04" stroke-miterlimit="10"/>
<path d="M251.782 341.177V322.386L235.493 312.982L219.196 322.386V341.177L235.493 350.581L251.782 341.177Z" stroke="#F9F9F9" stroke-opacity="0.04" stroke-miterlimit="10"/>
<path d="M284.368 341.177V322.386L268.079 312.982L251.782 322.386V341.177L268.079 350.581L284.368 341.177Z" stroke="#F9F9F9" stroke-opacity="0.04" stroke-miterlimit="10"/>
<path d="M316.954 341.177V322.386L300.665 312.982L284.368 322.386V341.177L300.665 350.581L316.954 341.177Z" stroke="#F9F9F9" stroke-opacity="0.04" stroke-miterlimit="10"/>
<path d="M349.539 341.177V322.386L333.251 312.982L316.954 322.386V341.177L333.251 350.581L349.539 341.177Z" stroke="#F9F9F9" stroke-opacity="0.04" stroke-miterlimit="10"/>
<path d="M382.125 341.177V322.386L365.837 312.982L349.54 322.386V341.177L365.837 350.581L382.125 341.177Z" stroke="#F9F9F9" stroke-opacity="0.04" stroke-miterlimit="10"/>
<path d="M414.711 341.177V322.386L398.423 312.982L382.126 322.386V341.177L398.423 350.581L414.711 341.177Z" stroke="#F9F9F9" stroke-opacity="0.04" stroke-miterlimit="10"/>
<path d="M447.297 341.177V322.386L431.009 312.982L414.712 322.386V341.177L431.009 350.581L447.297 341.177Z" stroke="#F9F9F9" stroke-opacity="0.04" stroke-miterlimit="10"/>
<path d="M479.883 341.177V322.386L463.595 312.982L447.297 322.386V341.177L463.595 350.581L479.883 341.177Z" stroke="#F9F9F9" stroke-opacity="0.04" stroke-miterlimit="10"/>
<path d="M512.469 341.177V322.386L496.181 312.982L479.883 322.386V341.177L496.181 350.581L512.469 341.177Z" stroke="#F9F9F9" stroke-opacity="0.04" stroke-miterlimit="10"/>
<path d="M545.055 341.177V322.386L528.767 312.982L512.469 322.386V341.177L528.767 350.581L545.055 341.177Z" stroke="#F9F9F9" stroke-opacity="0.04" stroke-miterlimit="10"/>
<path d="M39.9739 369.376V350.585L23.6853 341.181L7.388 350.585L7.388 369.376L23.6853 378.78L39.9739 369.376Z" stroke="#F9F9F9" stroke-opacity="0.04" stroke-miterlimit="10"/>
<path d="M72.5599 369.376V350.585L56.2713 341.181L39.974 350.585V369.376L56.2713 378.78L72.5599 369.376Z" stroke="#F9F9F9" stroke-opacity="0.04" stroke-miterlimit="10"/>
<path d="M105.145 369.376V350.585L88.8561 341.181L72.5588 350.585V369.376L88.8561 378.78L105.145 369.376Z" stroke="#F9F9F9" stroke-opacity="0.04" stroke-miterlimit="10"/>
<path d="M137.731 369.376V350.585L121.442 341.181L105.145 350.585V369.376L121.442 378.78L137.731 369.376Z" stroke="#F9F9F9" stroke-opacity="0.04" stroke-miterlimit="10"/>
<path d="M170.317 369.376V350.585L154.028 341.181L137.731 350.585V369.376L154.028 378.78L170.317 369.376Z" stroke="#F9F9F9" stroke-opacity="0.04" stroke-miterlimit="10"/>
<path d="M202.903 369.376V350.585L186.614 341.181L170.317 350.585V369.376L186.614 378.78L202.903 369.376Z" stroke="#F9F9F9" stroke-opacity="0.04" stroke-miterlimit="10"/>
<path d="M235.489 369.376V350.585L219.2 341.181L202.903 350.585V369.376L219.2 378.78L235.489 369.376Z" stroke="#F9F9F9" stroke-opacity="0.04" stroke-miterlimit="10"/>
<path d="M268.075 369.376V350.585L251.786 341.181L235.489 350.585V369.376L251.786 378.78L268.075 369.376Z" stroke="#F9F9F9" stroke-opacity="0.04" stroke-miterlimit="10"/>
<path d="M300.661 369.376V350.585L284.372 341.181L268.075 350.585V369.376L284.372 378.78L300.661 369.376Z" stroke="#F9F9F9" stroke-opacity="0.04" stroke-miterlimit="10"/>
<path d="M333.247 369.376V350.585L316.958 341.181L300.661 350.585V369.376L316.958 378.78L333.247 369.376Z" stroke="#F9F9F9" stroke-opacity="0.04" stroke-miterlimit="10"/>
<path d="M365.832 369.376V350.585L349.544 341.181L333.247 350.585V369.376L349.544 378.78L365.832 369.376Z" stroke="#F9F9F9" stroke-opacity="0.04" stroke-miterlimit="10"/>
<path d="M398.418 369.376V350.585L382.13 341.181L365.833 350.585V369.376L382.13 378.78L398.418 369.376Z" stroke="#F9F9F9" stroke-opacity="0.04" stroke-miterlimit="10"/>
<path d="M431.004 369.376V350.585L414.716 341.181L398.419 350.585V369.376L414.716 378.78L431.004 369.376Z" stroke="#F9F9F9" stroke-opacity="0.04" stroke-miterlimit="10"/>
<path d="M463.59 369.376V350.585L447.302 341.181L431.004 350.585V369.376L447.302 378.78L463.59 369.376Z" stroke="#F9F9F9" stroke-opacity="0.04" stroke-miterlimit="10"/>
<path d="M496.176 369.376V350.585L479.888 341.181L463.59 350.585V369.376L479.888 378.78L496.176 369.376Z" stroke="#F9F9F9" stroke-opacity="0.04" stroke-miterlimit="10"/>
<path d="M528.762 369.376V350.585L512.474 341.181L496.176 350.585V369.376L512.474 378.78L528.762 369.376Z" stroke="#F9F9F9" stroke-opacity="0.04" stroke-miterlimit="10"/>
</g>
</g>
<defs>
<radialGradient id="paint0_radial_143:2512" cx="0" cy="0" r="1" gradientUnits="userSpaceOnUse" gradientTransform="translate(270 180) rotate(90) scale(180 270)">
<stop stop-color="#C4C4C4"/>
<stop offset="1" stop-color="#C4C4C4" stop-opacity="0"/>
</radialGradient>
<clipPath id="clip0_143:2512">
<rect width="516" height="360" fill="white" transform="translate(-0.000183105)"/>
</clipPath>
</defs>
</svg>
