<svg width="29" height="24" viewBox="0 0 29 24" fill="none" xmlns="http://www.w3.org/2000/svg">
<path fill-rule="evenodd" clip-rule="evenodd" d="M3.43892 5.32179C3.47517 4.96533 3.33863 4.61371 3.07279 4.37446L0.366125 1.11196V0.625H8.77371L15.2721 14.8773L20.9851 0.625H29V1.11196L26.6848 3.33167C26.4855 3.48392 26.3864 3.73404 26.4275 3.98175V20.2918C26.3864 20.5383 26.4855 20.7885 26.6848 20.9407L28.9456 23.1604V23.6474H17.5728V23.1604L19.9158 20.8863C20.1453 20.6567 20.1453 20.5891 20.1453 20.2375V7.05454L13.6336 23.5942H12.754L5.17167 7.05454V18.1398C5.10883 18.605 5.2635 19.075 5.59096 19.411L8.63717 23.106V23.5942H0V23.106L3.04621 19.411C3.37246 19.0738 3.51746 18.6014 3.43892 18.1398V5.32179Z" fill="#F9F9F9" fill-opacity="0.5"/>
</svg>
