<svg width="24" height="24" viewBox="0 0 24 24" fill="none" xmlns="http://www.w3.org/2000/svg">
    <path d="M12.375 10.5H15V9H13.5V8.25H12V9.0381C11.545 9.13126 11.1407 9.38999 10.8655 9.76417C10.5904 10.1384 10.4639 10.6013 10.5106 11.0635C10.5572 11.5256 10.7738 11.9539 11.1182 12.2655C11.4627 12.5771 11.9105 12.7497 12.375 12.75H13.125C13.2245 12.75 13.3198 12.7895 13.3902 12.8598C13.4605 12.9302 13.5 13.0255 13.5 13.125C13.5 13.2245 13.4605 13.3198 13.3902 13.3902C13.3198 13.4605 13.2245 13.5 13.125 13.5H10.5V15H12V15.75H13.5V14.9619C13.955 14.8687 14.3593 14.61 14.6345 14.2358C14.9096 13.8616 15.0361 13.3987 14.9894 12.9365C14.9428 12.4744 14.7262 12.0461 14.3818 11.7345C14.0373 11.4229 13.5895 11.2503 13.125 11.25H12.375C12.2755 11.25 12.1802 11.2105 12.1098 11.1402C12.0395 11.0698 12 10.9745 12 10.875C12 10.7755 12.0395 10.6802 12.1098 10.6098C12.1802 10.5395 12.2755 10.5 12.375 10.5Z" fill="#14C75C"/>
    <path d="M21.75 9.75H20.235C20.2134 9.15751 20.0705 8.57575 19.815 8.04071C19.5596 7.50567 19.1971 7.02873 18.75 6.63938V3.75C18.75 3.61072 18.7112 3.47418 18.638 3.3557C18.5648 3.23722 18.46 3.14147 18.3354 3.07918C18.2108 3.01689 18.0714 2.99052 17.9326 3.00303C17.7939 3.01554 17.6614 3.06643 17.55 3.15L14.7499 5.25H11.25C7.11788 5.25 4.15245 7.6809 3.78862 11.25H3.75C3.55114 11.2498 3.36048 11.1707 3.21987 11.0301C3.07925 10.8895 3.00018 10.6989 3 10.5V9H1.5V10.5C1.50066 11.0965 1.73792 11.6685 2.15973 12.0903C2.58155 12.5121 3.15346 12.7493 3.75 12.75H3.8025C3.91132 13.7334 4.23097 14.6817 4.73963 15.5304C5.24829 16.379 5.93401 17.1079 6.75 17.6674V20.25C6.75 20.4489 6.82902 20.6397 6.96967 20.7803C7.11032 20.921 7.30109 21 7.5 21H10.5C10.6989 21 10.8897 20.921 11.0303 20.7803C11.171 20.6397 11.25 20.4489 11.25 20.25V18.75H13.5V20.25C13.5 20.4489 13.579 20.6397 13.7197 20.7803C13.8603 20.921 14.0511 21 14.25 21H17.25C17.4489 21 17.6397 20.921 17.7803 20.7803C17.921 20.6397 18 20.4489 18 20.25V17.7279C18.5418 17.471 19.0155 17.0903 19.3827 16.6163C19.75 16.1424 20.0006 15.5887 20.1141 15H21.75C21.9489 15 22.1397 14.921 22.2803 14.7803C22.421 14.6397 22.5 14.4489 22.5 14.25V10.5C22.5 10.3011 22.421 10.1103 22.2803 9.96967C22.1397 9.82902 21.9489 9.75 21.75 9.75ZM21 13.5H18.843C18.6141 15.5647 18.2254 16.114 16.5 16.7365V19.5H15V17.25H9.75V19.5H8.25V16.7834C7.34694 16.3538 6.58507 15.6756 6.05373 14.8284C5.52238 13.9812 5.24357 13 5.25 12C5.25 8.37345 8.26358 6.75 11.25 6.75H15.2501L17.25 5.25V7.3323C19.0637 8.72678 18.6845 9.7218 18.7637 11.25H21V13.5Z" fill="#14C75C"/>
</svg>
