<svg width="599" height="360" viewBox="0 0 599 360" fill="none" xmlns="http://www.w3.org/2000/svg">
<g clip-path="url(#clip0_1277:3242)">
<g clip-path="url(#clip1_1277:3242)">
<path d="M140.138 1038.63C90.2075 969.272 54.4761 890.734 34.9983 807.53C15.5205 724.327 12.6804 638.1 26.6415 553.806C40.387 469.458 70.6633 388.662 115.731 316.06C160.799 243.457 219.771 180.479 289.258 130.741C393.18 56.2027 516.758 13.9133 644.579 9.14734C772.399 4.38135 898.808 37.3496 1008.04 103.941C1118.58 171.402 1206.45 270.339 1260.39 388.062C1314.33 505.784 1331.87 636.925 1310.77 764.662C1297.03 849.01 1266.75 929.805 1221.68 1002.41C1176.62 1075.01 1117.64 1137.99 1048.16 1187.73C944.235 1262.27 820.658 1304.55 692.837 1309.32C565.016 1314.09 438.608 1281.12 329.376 1214.53C255.106 1169.22 190.741 1109.4 140.138 1038.63ZM1192.89 282.988C1143.55 214.08 1081.08 155.601 1009.06 110.913C937.051 66.2243 856.92 36.2079 773.277 22.5895C689.651 8.74967 604.121 11.5672 521.598 30.8802C439.076 50.1932 361.188 85.6211 292.408 135.129C189.399 209.121 110.463 311.806 65.4425 430.38C20.4225 548.954 11.3111 678.168 39.2447 801.91C67.5821 927.153 132.687 1041.09 226.209 1129.1C319.731 1217.11 437.405 1275.19 564.138 1295.88C647.764 1309.72 733.295 1306.9 815.817 1287.59C898.34 1268.27 976.228 1232.85 1045.01 1183.34C1148.02 1109.35 1226.95 1006.66 1271.97 888.088C1316.99 769.514 1326.1 640.3 1298.17 516.558C1279.15 432.415 1243.34 352.971 1192.89 282.988Z" fill="#F9F9F9" fill-opacity="0.08"/>
<path d="M552.706 488.645C552.631 488.539 552.572 488.423 552.53 488.3L521.551 395.85C521.495 395.683 521.473 395.505 521.488 395.329C521.503 395.153 521.554 394.982 521.638 394.826C521.721 394.67 521.836 394.533 521.974 394.423C522.113 394.313 522.273 394.233 522.443 394.187L645.148 361.235C645.467 361.149 645.807 361.187 646.098 361.344C646.389 361.5 646.609 361.762 646.713 362.075L673.058 440.697C673.163 441.012 673.144 441.354 673.004 441.655C672.865 441.956 672.615 442.192 672.307 442.314L554.237 489.094C553.968 489.2 553.672 489.214 553.395 489.132C553.117 489.051 552.875 488.879 552.706 488.645ZM524.446 396.334L554.554 486.18L670.21 440.356L644.643 364.054L524.446 396.334Z" fill="#F9F9F9" fill-opacity="0.08"/>
<path d="M521.727 396.196C521.615 396.04 521.539 395.861 521.504 395.672L505.312 306.771C505.281 306.601 505.284 306.427 505.321 306.258C505.359 306.089 505.43 305.93 505.53 305.789C505.63 305.648 505.757 305.529 505.904 305.438C506.051 305.347 506.214 305.286 506.385 305.259L631.51 285.604C631.844 285.552 632.185 285.633 632.461 285.829C632.737 286.025 632.926 286.32 632.987 286.653L646.76 362.256C646.818 362.576 646.754 362.906 646.58 363.181C646.406 363.456 646.135 363.655 645.821 363.739L523.116 396.692C522.861 396.76 522.592 396.749 522.344 396.66C522.096 396.572 521.881 396.41 521.727 396.196ZM508.1 307.614L523.802 393.823L643.995 361.546L630.663 288.361L508.1 307.614Z" fill="#F9F9F9" fill-opacity="0.08"/>
<path d="M404.63 439.284C404.518 439.128 404.442 438.949 404.408 438.76L386.414 339.98C386.356 339.662 386.419 339.334 386.591 339.06C386.762 338.787 387.029 338.587 387.34 338.5L506.237 305.29C506.411 305.241 506.593 305.23 506.771 305.256C506.95 305.281 507.121 305.344 507.274 305.44C507.426 305.536 507.558 305.662 507.659 305.811C507.76 305.961 507.829 306.129 507.861 306.307L524.054 395.207C524.109 395.507 524.056 395.817 523.904 396.082C523.753 396.347 523.513 396.55 523.227 396.655L406.131 439.745C405.865 439.843 405.574 439.851 405.303 439.767C405.032 439.684 404.796 439.515 404.63 439.284ZM389.176 340.679L406.682 436.78L521.309 394.599L505.566 308.169L389.176 340.679Z" fill="#F9F9F9" fill-opacity="0.08"/>
<path d="M297.643 490.854C297.53 490.698 297.454 490.519 297.42 490.33L278.321 385.468C278.268 385.177 278.316 384.878 278.456 384.618C278.596 384.359 278.821 384.155 279.093 384.041L387.186 338.553C387.365 338.478 387.558 338.444 387.752 338.453C387.946 338.463 388.136 338.516 388.306 338.608C388.477 338.701 388.625 338.83 388.739 338.988C388.853 339.145 388.93 339.325 388.964 339.516L406.958 438.297C407.009 438.576 406.967 438.864 406.838 439.117C406.71 439.369 406.502 439.573 406.246 439.696L299.258 491.266C298.984 491.399 298.671 491.43 298.375 491.355C298.08 491.279 297.82 491.102 297.643 490.854ZM281.058 386.027L299.665 488.192L404.231 437.789L386.704 341.569L281.058 386.027Z" fill="#F9F9F9" fill-opacity="0.08"/>
<path d="M505.533 307.294C505.378 307.077 505.293 306.817 505.29 306.55L504.509 224.618C504.505 224.285 504.63 223.964 504.857 223.721C505.084 223.478 505.396 223.331 505.728 223.312L630.968 215.911C631.143 215.901 631.319 215.926 631.484 215.986C631.649 216.045 631.801 216.138 631.929 216.257C632.057 216.378 632.16 216.522 632.231 216.683C632.301 216.844 632.339 217.017 632.341 217.193L633.007 286.872C633.01 287.183 632.901 287.484 632.7 287.721C632.499 287.959 632.22 288.116 631.913 288.164L506.788 307.819C506.551 307.856 506.308 307.827 506.086 307.734C505.865 307.642 505.674 307.489 505.533 307.294ZM507.112 225.827L507.868 305.025L630.405 285.777L629.762 218.579L507.112 225.827Z" fill="#F9F9F9" fill-opacity="0.08"/>
<path d="M630.659 287.64C630.503 287.423 630.418 287.163 630.416 286.896L629.749 217.217C629.748 217.038 629.783 216.86 629.854 216.695C629.924 216.53 630.028 216.382 630.159 216.259C630.29 216.136 630.445 216.042 630.614 215.983C630.784 215.923 630.963 215.899 631.142 215.913L757.836 225.499C758.16 225.523 758.463 225.668 758.685 225.905C758.907 226.143 759.031 226.454 759.034 226.779L759.555 281.528C759.558 281.864 759.431 282.189 759.199 282.432C758.968 282.676 758.651 282.821 758.315 282.835L631.767 288.179C631.593 288.186 631.42 288.159 631.257 288.097C631.094 288.036 630.945 287.943 630.819 287.824C630.76 287.767 630.706 287.706 630.659 287.64ZM632.355 218.604L632.995 285.533L756.951 280.298L756.454 227.994L632.355 218.604Z" fill="#F9F9F9" fill-opacity="0.08"/>
<path d="M386.637 340.505C386.481 340.288 386.396 340.028 386.394 339.761L385.527 248.72C385.524 248.418 385.626 248.126 385.815 247.892C386.005 247.658 386.27 247.497 386.565 247.437L505.547 223.336C505.734 223.298 505.928 223.302 506.113 223.347C506.299 223.393 506.472 223.479 506.62 223.599C506.769 223.719 506.889 223.871 506.972 224.043C507.055 224.215 507.099 224.403 507.101 224.594L507.882 306.527C507.885 306.812 507.794 307.09 507.623 307.318C507.452 307.546 507.21 307.711 506.936 307.788L388.039 340.998C387.847 341.051 387.646 341.06 387.45 341.023C387.255 340.986 387.07 340.904 386.911 340.785C386.806 340.706 386.713 340.611 386.637 340.505ZM388.129 249.766L388.97 338.046L505.281 305.558L504.524 226.188L388.129 249.766Z" fill="#F9F9F9" fill-opacity="0.08"/>
<path d="M278.544 385.992C278.388 385.775 278.303 385.515 278.301 385.248L277.376 288.597C277.374 288.33 277.454 288.069 277.606 287.849C277.757 287.629 277.973 287.462 278.223 287.369L386.374 247.491C386.569 247.419 386.778 247.395 386.985 247.422C387.191 247.448 387.388 247.523 387.559 247.641C387.73 247.759 387.87 247.916 387.968 248.1C388.065 248.284 388.117 248.488 388.119 248.696L388.986 339.737C388.988 339.994 388.914 340.246 388.773 340.461C388.632 340.676 388.43 340.844 388.193 340.944L280.1 386.431C279.829 386.545 279.528 386.564 279.245 386.484C278.962 386.404 278.715 386.231 278.544 385.992ZM279.977 289.485L280.874 383.292L386.386 338.891L385.544 250.56L279.977 289.485Z" fill="#F9F9F9" fill-opacity="0.08"/>
<path d="M504.752 225.362C504.648 225.217 504.575 225.052 504.537 224.877C504.5 224.703 504.499 224.522 504.535 224.347L519.192 152.525C519.253 152.227 519.417 151.959 519.656 151.77C519.894 151.58 520.192 151.481 520.497 151.489L643.546 154.831C643.735 154.836 643.92 154.882 644.09 154.967C644.259 155.052 644.408 155.172 644.525 155.32C644.643 155.469 644.727 155.641 644.771 155.825C644.815 156.009 644.818 156.2 644.781 156.386L632.315 217.465C632.258 217.745 632.11 217.998 631.894 218.185C631.679 218.372 631.407 218.483 631.122 218.5L505.882 225.901C505.683 225.912 505.485 225.878 505.302 225.801C505.119 225.724 504.956 225.606 504.826 225.456C504.799 225.425 504.775 225.394 504.752 225.362ZM521.515 154.11L507.412 223.213L629.974 215.97L641.932 157.38L521.515 154.11Z" fill="#F9F9F9" fill-opacity="0.08"/>
<path d="M385.77 249.463C385.666 249.317 385.593 249.152 385.556 248.978C385.518 248.803 385.517 248.623 385.553 248.448L401.838 168.646C401.891 168.383 402.025 168.143 402.221 167.96C402.417 167.776 402.665 167.658 402.931 167.621L520.285 151.5C520.49 151.472 520.699 151.493 520.895 151.562C521.09 151.631 521.266 151.746 521.407 151.898C521.549 152.049 521.652 152.232 521.709 152.431C521.765 152.63 521.773 152.84 521.732 153.043L507.074 224.865C507.024 225.114 506.901 225.343 506.721 225.523C506.541 225.703 506.312 225.826 506.062 225.876L387.081 249.977C386.836 250.027 386.582 250.005 386.349 249.914C386.117 249.822 385.916 249.666 385.77 249.463ZM404.194 170.064L388.484 247.048L504.706 223.505L518.826 154.316L404.194 170.064Z" fill="#F9F9F9" fill-opacity="0.08"/>
<path d="M185.402 442.005C185.246 441.788 185.161 441.529 185.158 441.262L184.215 342.721C184.213 342.492 184.272 342.266 184.385 342.067C184.498 341.868 184.662 341.703 184.86 341.588L278.021 287.464C278.217 287.35 278.44 287.29 278.667 287.289C278.893 287.288 279.116 287.347 279.313 287.459C279.51 287.571 279.675 287.733 279.79 287.929C279.905 288.124 279.966 288.346 279.969 288.573L280.893 385.224C280.895 385.45 280.838 385.672 280.728 385.869C280.618 386.066 280.459 386.231 280.265 386.347L187.123 442.361C186.844 442.528 186.512 442.585 186.193 442.519C185.874 442.453 185.591 442.27 185.402 442.005ZM186.815 343.451L187.729 438.971L278.294 384.507L277.398 290.824L186.815 343.451Z" fill="#F9F9F9" fill-opacity="0.08"/>
<path d="M277.62 289.341C277.515 289.196 277.442 289.031 277.405 288.856C277.367 288.681 277.367 288.501 277.402 288.326L294.691 203.607C294.737 203.382 294.842 203.174 294.994 203.003C295.146 202.832 295.341 202.705 295.559 202.634L402.705 167.674C402.921 167.604 403.151 167.591 403.373 167.638C403.595 167.684 403.801 167.788 403.97 167.939C404.139 168.09 404.266 168.283 404.338 168.498C404.409 168.713 404.423 168.943 404.377 169.165L388.093 248.967C388.048 249.183 387.95 249.384 387.806 249.552C387.663 249.719 387.479 249.847 387.272 249.924L279.121 289.801C278.855 289.899 278.564 289.907 278.293 289.824C278.022 289.741 277.785 289.571 277.62 289.341ZM297.08 204.864L280.408 286.564L385.697 247.741L401.392 170.829L297.08 204.864Z" fill="#F9F9F9" fill-opacity="0.08"/>
<path d="M519.409 153.54C519.388 153.511 519.368 153.481 519.35 153.45C519.238 153.263 519.175 153.051 519.167 152.833C519.158 152.615 519.205 152.398 519.303 152.203L548.835 93.255C548.953 93.0199 549.14 92.8262 549.37 92.6998C549.601 92.5733 549.864 92.52 550.126 92.5469L668.76 104.709C668.969 104.729 669.17 104.8 669.345 104.916C669.52 105.032 669.664 105.19 669.764 105.374C669.865 105.558 669.92 105.764 669.924 105.974C669.928 106.184 669.881 106.391 669.787 106.579L644.669 156.707C644.559 156.927 644.388 157.111 644.177 157.238C643.965 157.364 643.722 157.428 643.476 157.421L520.427 154.079C520.227 154.074 520.031 154.022 519.855 153.929C519.678 153.835 519.526 153.702 519.409 153.54ZM550.752 95.2167L522.533 151.544L642.721 154.808L666.628 107.096L550.752 95.2167Z" fill="#F9F9F9" fill-opacity="0.08"/>
<path d="M402.055 169.662C401.917 169.47 401.835 169.244 401.816 169.008C401.797 168.773 401.843 168.537 401.948 168.325L434.762 102.825C434.862 102.627 435.01 102.457 435.194 102.333C435.378 102.208 435.591 102.133 435.813 102.115L549.885 92.5453C550.115 92.5228 550.347 92.5634 550.555 92.6629C550.763 92.7624 550.94 92.917 551.067 93.1099C551.196 93.3007 551.272 93.5223 551.287 93.7521C551.302 93.982 551.256 94.2116 551.153 94.4175L521.621 153.365C521.526 153.553 521.388 153.716 521.217 153.838C521.045 153.961 520.847 154.04 520.638 154.068L403.284 170.19C403.051 170.222 402.813 170.19 402.596 170.097C402.379 170.004 402.192 169.853 402.055 169.662ZM436.754 104.636L405.368 167.287L519.609 151.593L547.8 95.3209L436.754 104.636Z" fill="#F9F9F9" fill-opacity="0.08"/>
<path d="M110.792 506.4C110.636 506.183 110.551 505.923 110.549 505.656L109.622 409.007C109.62 408.822 109.658 408.638 109.733 408.469C109.808 408.3 109.918 408.149 110.056 408.026L184.649 341.74C184.835 341.575 185.065 341.466 185.311 341.428C185.557 341.39 185.808 341.423 186.036 341.524C186.263 341.625 186.457 341.789 186.594 341.997C186.73 342.205 186.804 342.448 186.807 342.697L187.75 441.238C187.752 441.426 187.712 441.612 187.635 441.784C187.557 441.955 187.443 442.108 187.301 442.231L112.692 506.626C112.556 506.743 112.397 506.831 112.224 506.884C112.052 506.936 111.871 506.953 111.692 506.931C111.514 506.91 111.341 506.852 111.186 506.76C111.031 506.669 110.897 506.546 110.792 506.4ZM112.219 409.572L113.114 502.836L185.152 440.661L184.242 345.57L112.219 409.572Z" fill="#F9F9F9" fill-opacity="0.08"/>
<path d="M184.458 343.465C184.354 343.32 184.281 343.155 184.244 342.981C184.206 342.806 184.205 342.625 184.241 342.45L201.872 256.073C201.909 255.891 201.984 255.719 202.093 255.57C202.202 255.42 202.342 255.295 202.503 255.204L295.323 202.738C295.54 202.616 295.787 202.559 296.035 202.573C296.283 202.587 296.522 202.672 296.724 202.818C296.925 202.965 297.08 203.166 297.17 203.398C297.26 203.629 297.281 203.882 297.231 204.126L279.942 288.845C279.906 289.024 279.832 289.194 279.725 289.342C279.619 289.491 279.482 289.615 279.324 289.707L186.163 343.83C185.884 343.992 185.555 344.045 185.24 343.977C184.925 343.91 184.646 343.727 184.458 343.465ZM204.293 257.169L187.359 340.137L277.519 287.757L294.122 206.395L204.293 257.169Z" fill="#F9F9F9" fill-opacity="0.08"/>
<path d="M548.941 94.5923C548.871 94.4948 548.815 94.3878 548.774 94.2747C548.692 94.0446 548.676 93.7959 548.728 93.5572C548.781 93.3185 548.9 93.0995 549.072 92.9257L592.346 49.1194C592.492 48.9719 592.671 48.8615 592.869 48.7975C593.066 48.7335 593.276 48.7178 593.481 48.7518L705.642 67.4623C705.876 67.5018 706.095 67.6046 706.275 67.7597C706.455 67.9148 706.589 68.1161 706.663 68.342C706.736 68.5678 706.746 68.8095 706.691 69.0405C706.636 69.2714 706.519 69.4828 706.352 69.6516L669.55 106.909C669.414 107.047 669.249 107.152 669.066 107.218C668.884 107.283 668.689 107.307 668.496 107.288L549.862 95.1258C549.68 95.1072 549.503 95.05 549.345 94.958C549.186 94.866 549.048 94.7414 548.941 94.5923ZM593.718 51.4194L552.817 92.8231L668.142 104.646L702.751 69.6082L593.718 51.4194Z" fill="#F9F9F9" fill-opacity="0.08"/>
<path d="M294.909 204.621C294.771 204.429 294.688 204.203 294.669 203.967C294.651 203.732 294.697 203.495 294.803 203.284L329.64 133.753C329.72 133.594 329.831 133.454 329.967 133.34C330.104 133.226 330.262 133.141 330.433 133.091L435.555 102.162C435.797 102.09 436.055 102.091 436.297 102.165C436.539 102.238 436.754 102.38 436.916 102.574C437.078 102.768 437.18 103.005 437.209 103.255C437.238 103.506 437.194 103.76 437.08 103.986L404.267 169.486C404.19 169.639 404.083 169.776 403.954 169.887C403.824 169.999 403.673 170.084 403.51 170.137L296.364 205.097C296.12 205.177 295.859 205.182 295.613 205.114C295.366 205.045 295.146 204.904 294.979 204.71C294.954 204.682 294.931 204.652 294.909 204.621ZM331.705 135.419L298.511 201.67L402.191 167.841L433.427 105.49L331.705 135.419Z" fill="#F9F9F9" fill-opacity="0.08"/>
<path d="M109.865 409.751C109.761 409.606 109.688 409.441 109.651 409.266C109.613 409.092 109.612 408.911 109.648 408.736L126.937 324.017C126.992 323.747 127.132 323.501 127.336 323.316L202.27 255.371C202.473 255.188 202.728 255.073 202.999 255.043C203.271 255.013 203.545 255.07 203.782 255.205C204.02 255.341 204.208 255.547 204.321 255.796C204.434 256.045 204.466 256.323 204.411 256.591L186.781 342.969C186.725 343.243 186.582 343.492 186.372 343.678L111.779 409.965C111.644 410.085 111.484 410.176 111.311 410.231C111.138 410.286 110.955 410.304 110.775 410.284C110.595 410.264 110.42 410.206 110.264 410.114C110.107 410.022 109.971 409.899 109.865 409.751ZM129.392 324.952L112.966 405.442L184.327 342.027L201.079 259.95L129.392 324.952Z" fill="#F9F9F9" fill-opacity="0.08"/>
<path d="M434.869 104.162C434.822 104.097 434.782 104.028 434.748 103.955C434.635 103.715 434.599 103.447 434.644 103.186C434.689 102.924 434.813 102.683 435 102.495L483.086 53.8205C483.316 53.5877 483.625 53.4506 483.952 53.4368L593.212 48.7356C593.472 48.7244 593.73 48.7918 593.951 48.9291C594.172 49.0664 594.347 49.2671 594.453 49.5051C594.559 49.7432 594.59 50.0075 594.543 50.2637C594.496 50.5199 594.373 50.756 594.19 50.9412L550.916 94.7475C550.699 94.9673 550.411 95.1022 550.103 95.1276L436.03 104.697C435.807 104.716 435.582 104.676 435.379 104.583C435.175 104.489 434.999 104.344 434.869 104.162ZM484.573 56.0048L439.309 101.821L549.408 92.5847L590.027 51.4666L484.573 56.0048Z" fill="#F9F9F9" fill-opacity="0.08"/>
<path d="M202.089 257.087C201.951 256.895 201.868 256.669 201.849 256.434C201.831 256.198 201.877 255.962 201.983 255.751L237.501 184.855C237.618 184.622 237.802 184.429 238.031 184.303L330.17 133.202C330.412 133.068 330.691 133.014 330.965 133.05C331.24 133.086 331.496 133.209 331.696 133.4C331.896 133.592 332.029 133.843 332.076 134.116C332.123 134.388 332.082 134.669 331.958 134.917L297.12 204.448C297.005 204.678 296.824 204.868 296.6 204.995L203.779 257.46C203.538 257.597 203.258 257.652 202.983 257.618C202.707 257.584 202.45 257.462 202.248 257.271C202.19 257.215 202.136 257.153 202.089 257.087ZM239.639 186.375L206.204 253.111L294.979 202.932L327.763 137.502L239.639 186.375Z" fill="#F9F9F9" fill-opacity="0.08"/>
<path d="M592.216 50.7857C592.095 50.6171 592.016 50.4217 591.986 50.2162C591.946 49.9444 591.994 49.6671 592.123 49.4243C592.251 49.1815 592.453 48.9857 592.7 48.8653L648.054 21.8786C648.316 21.7504 648.614 21.7148 648.9 21.7777L752.783 44.5273C753.046 44.5851 753.284 44.7232 753.465 44.9224C753.646 45.1216 753.76 45.3721 753.792 45.6392C753.825 45.9065 753.773 46.1772 753.644 46.4136C753.515 46.65 753.316 46.8403 753.074 46.9582L705.998 69.9058C705.756 70.0236 705.483 70.0633 705.218 70.0193L593.056 51.3088C592.718 51.2524 592.416 51.0643 592.216 50.7857ZM648.786 24.4056L597.48 49.4189L705.234 67.3938L748.586 46.2617L648.786 24.4056Z" fill="#F9F9F9" fill-opacity="0.08"/>
<path d="M329.746 135.091C329.725 135.062 329.705 135.032 329.686 135C329.539 134.754 329.477 134.465 329.512 134.18C329.546 133.894 329.674 133.629 329.876 133.424L380.921 81.7504C381.081 81.5881 381.281 81.471 381.501 81.411L483.665 53.4811C483.941 53.4058 484.233 53.4235 484.497 53.5313C484.761 53.639 484.982 53.8309 485.126 54.0772C485.27 54.3234 485.329 54.6103 485.294 54.8932C485.258 55.1762 485.13 55.4396 484.93 55.6424L436.843 104.317C436.689 104.473 436.498 104.587 436.287 104.649L331.165 135.578C330.907 135.654 330.632 135.648 330.378 135.561C330.124 135.474 329.903 135.309 329.746 135.091ZM382.521 83.8195L335.249 131.675L435.234 102.257L479.693 57.255L382.521 83.8195Z" fill="#F9F9F9" fill-opacity="0.08"/>
<path d="M56.7116 485.655C56.6072 485.51 56.534 485.345 56.4966 485.17C56.4591 484.995 56.4583 484.815 56.494 484.639L72.7812 404.836C72.8149 404.671 72.8804 404.514 72.9741 404.374L127.131 323.554C127.298 323.305 127.547 323.121 127.834 323.035C128.122 322.948 128.43 322.964 128.707 323.08C128.984 323.196 129.213 323.404 129.353 323.67C129.494 323.935 129.538 324.241 129.478 324.535L112.189 409.254C112.153 409.428 112.082 409.593 111.981 409.739L58.8257 485.643C58.7069 485.812 58.5493 485.951 58.3659 486.047C58.1826 486.143 57.979 486.194 57.7721 486.195C57.5651 486.196 57.3608 486.148 57.1764 486.054C56.9919 485.96 56.8325 485.823 56.7117 485.655L56.7116 485.655ZM75.2699 405.605L60.2816 479.043L109.703 408.472L125.622 330.463L75.2699 405.605Z" fill="#F9F9F9" fill-opacity="0.08"/>
<path d="M482.955 55.4868C482.845 55.3335 482.77 55.1582 482.735 54.9729C482.7 54.7876 482.706 54.5969 482.752 54.4141C482.798 54.2313 482.883 54.0607 483.002 53.9143C483.121 53.7679 483.27 53.6492 483.44 53.5664L544.944 23.5791C545.114 23.4963 545.301 23.4515 545.49 23.4476L648.6 21.7471C648.895 21.7427 649.183 21.8387 649.416 22.0194C649.649 22.2001 649.813 22.4548 649.882 22.7414C649.951 23.0282 649.92 23.3298 649.794 23.5965C649.669 23.8632 649.456 24.079 649.19 24.2082L593.837 51.1948C593.677 51.2731 593.502 51.3173 593.324 51.3246L484.064 56.0258C483.849 56.0352 483.635 55.9908 483.441 55.8967C483.248 55.8026 483.081 55.6617 482.955 55.4868ZM545.822 26.0352L490.171 53.1688L592.943 48.747L642.809 24.4352L545.822 26.0352Z" fill="#F9F9F9" fill-opacity="0.08"/>
<path d="M127.154 325.031C127.016 324.839 126.933 324.613 126.914 324.378C126.896 324.142 126.942 323.906 127.048 323.695L161.885 254.164C161.956 254.023 162.052 253.896 162.168 253.789L237.783 184.48C238.007 184.275 238.295 184.155 238.597 184.141C238.9 184.126 239.198 184.218 239.44 184.401C239.682 184.584 239.852 184.845 239.921 185.14C239.99 185.435 239.954 185.745 239.818 186.016L204.3 256.912C204.228 257.055 204.13 257.183 204.011 257.291L129.077 325.236C128.942 325.359 128.782 325.451 128.609 325.508C128.435 325.564 128.251 325.584 128.07 325.564C127.888 325.545 127.713 325.488 127.555 325.396C127.397 325.304 127.26 325.18 127.154 325.031ZM164.096 255.539L132.47 318.66L202.091 255.533L234.349 191.144L164.096 255.539Z" fill="#F9F9F9" fill-opacity="0.08"/>
<path d="M237.607 186.191C237.429 185.942 237.344 185.639 237.368 185.334C237.392 185.029 237.523 184.742 237.738 184.525L289.783 131.841C289.87 131.752 289.971 131.676 290.08 131.616L381.22 81.5257C381.492 81.3757 381.81 81.329 382.115 81.3941C382.419 81.4592 382.69 81.6317 382.878 81.8801C383.071 82.1265 383.166 82.4355 383.146 82.7479C383.125 83.0602 382.99 83.3539 382.766 83.5727L331.721 135.246C331.635 135.334 331.536 135.409 331.428 135.469L239.289 186.57C239.016 186.721 238.698 186.768 238.393 186.704C238.088 186.64 237.816 186.467 237.627 186.219L237.607 186.191ZM291.495 133.797L245.929 179.922L330.008 133.292L374.661 88.0884L291.495 133.797Z" fill="#F9F9F9" fill-opacity="0.08"/>
<path d="M380.791 83.4182C380.681 83.2649 380.606 83.0894 380.571 82.9041C380.536 82.7188 380.541 82.5279 380.588 82.345C380.634 82.1621 380.719 81.9915 380.838 81.845C380.957 81.6985 381.106 81.5797 381.276 81.4969L446.568 49.6663C446.643 49.6296 446.722 49.6 446.803 49.5781L545.18 23.4914C545.491 23.4098 545.821 23.4466 546.107 23.5945C546.393 23.7425 546.614 23.9911 546.727 24.2924C546.839 24.594 546.835 24.9268 546.716 25.2257C546.596 25.5246 546.37 25.7684 546.081 25.9094L484.576 55.8966C484.504 55.932 484.428 55.9607 484.35 55.9822L382.186 83.912C381.931 83.9817 381.661 83.9718 381.411 83.8835C381.162 83.7952 380.946 83.6329 380.791 83.4182ZM447.591 52.0516L394.854 77.7613L483.549 53.5135L532.998 29.4042L447.591 52.0516Z" fill="#F9F9F9" fill-opacity="0.08"/>
<path d="M72.9977 405.852C72.8596 405.66 72.7768 405.434 72.758 405.198C72.7392 404.962 72.7853 404.726 72.8912 404.515L105.705 339.014C105.729 338.968 105.755 338.923 105.783 338.879L161.963 254.029C162.146 253.754 162.426 253.558 162.748 253.483C163.069 253.408 163.408 253.458 163.693 253.623C163.979 253.789 164.191 254.057 164.286 254.374C164.381 254.69 164.351 255.031 164.203 255.326L129.366 324.857C129.341 324.905 129.314 324.952 129.284 324.998L75.1273 405.817C75.0107 405.991 74.8538 406.134 74.67 406.234C74.4862 406.333 74.2809 406.387 74.0717 406.391C73.8625 406.394 73.6556 406.347 73.4686 406.253C73.2816 406.159 73.12 406.022 72.9977 405.852ZM107.988 340.246L84.417 387.296L127.085 323.622L152.249 273.398L107.988 340.246Z" fill="#F9F9F9" fill-opacity="0.08"/>
<path d="M544.458 25.4986C544.32 25.3065 544.237 25.0801 544.219 24.8442C544.194 24.5151 544.295 24.1888 544.501 23.9316C544.708 23.6745 545.005 23.5057 545.332 23.4599L617.895 13.3226C617.952 13.3152 618.008 13.3111 618.065 13.3106L713.917 12.6232C714.246 12.6207 714.563 12.7434 714.805 12.9665C715.047 13.1895 715.195 13.4962 715.219 13.8243C715.243 14.1524 715.142 14.4774 714.935 14.7334C714.728 14.9893 714.432 15.1572 714.106 15.2028L648.801 24.3267C648.749 24.3339 648.696 24.3382 648.643 24.3394L545.533 26.0399C545.324 26.0433 545.117 25.9958 544.929 25.9016C544.742 25.8073 544.58 25.669 544.458 25.4986ZM618.17 15.902L566.654 23.0989L648.52 21.7487L694.274 15.3557L618.17 15.902Z" fill="#F9F9F9" fill-opacity="0.08"/>
<path d="M161.991 255.5C161.813 255.251 161.729 254.948 161.753 254.643C161.777 254.338 161.908 254.052 162.123 253.835L213.171 202.159L289.828 131.797C290.077 131.569 290.406 131.447 290.744 131.458C291.082 131.468 291.402 131.61 291.637 131.854C291.871 132.097 292.002 132.422 292 132.76C291.998 133.098 291.864 133.422 291.627 133.663L239.582 186.347L163.921 255.701C163.786 255.825 163.626 255.919 163.452 255.976C163.278 256.034 163.093 256.054 162.911 256.035C162.729 256.016 162.552 255.958 162.394 255.866C162.235 255.774 162.098 255.649 161.991 255.5ZM252.56 169.522L214.97 204.025L200.681 218.49L237.784 184.481L252.56 169.522Z" fill="#F9F9F9" fill-opacity="0.08"/>
<path d="M289.652 133.509C289.545 133.36 289.471 133.19 289.434 133.01C289.398 132.83 289.4 132.645 289.44 132.466C289.48 132.287 289.558 132.119 289.669 131.972C289.779 131.825 289.919 131.704 290.08 131.616L381.219 81.5252L446.568 49.6658C446.871 49.5175 447.221 49.494 447.542 49.6002C447.864 49.7064 448.13 49.9338 448.286 50.234C448.442 50.5343 448.474 50.8834 448.376 51.207C448.278 51.5306 448.057 51.803 447.761 51.966L357.901 101.431L291.272 133.916C290.998 134.05 290.684 134.083 290.388 134.008C290.091 133.934 289.831 133.757 289.652 133.509ZM400.741 74.8907L382.412 83.826L337.758 108.369L356.708 99.1303L400.741 74.8907Z" fill="#F9F9F9" fill-opacity="0.08"/>
</g>
</g>
<defs>
<clipPath id="clip0_1277:3242">
<rect width="605" height="385" fill="white"/>
</clipPath>
<clipPath id="clip1_1277:3242">
<rect width="1301.21" height="1301.27" fill="white" transform="matrix(0.583226 0.81231 -0.81239 0.583115 817.83 -248.656)"/>
</clipPath>
</defs>
</svg>
