<svg width="375" height="238" viewBox="0 0 375 238" fill="none" xmlns="http://www.w3.org/2000/svg">
<g clip-path="url(#clip0_2109:8944)">
<g clip-path="url(#clip1_2109:8944)">
<path d="M86.8625 642.062C55.9137 599.187 33.7661 550.636 21.6931 499.201C9.62006 447.766 7.85972 394.462 16.5133 342.353C25.0332 290.211 43.7995 240.264 71.7342 195.383C99.6688 150.501 136.221 111.569 179.292 80.8222C243.707 34.7437 320.304 8.60123 399.532 5.65498C478.76 2.70873 557.112 23.0891 624.817 64.2544C693.332 105.958 747.799 167.119 781.233 239.893C814.666 312.667 825.541 393.735 812.463 472.7C803.943 524.843 785.177 574.789 757.242 619.671C729.308 664.552 692.755 703.484 649.684 734.231C585.27 780.31 508.672 806.452 429.444 809.398C350.216 812.345 271.864 791.964 204.159 750.799C158.123 722.793 118.227 685.809 86.8625 642.062ZM739.395 174.938C708.811 132.341 670.088 96.1902 625.453 68.5645C580.817 40.9389 531.149 22.3833 479.304 13.9647C427.47 5.40915 374.455 7.15091 323.305 19.0899C272.154 31.0288 223.877 52.9297 181.245 83.5344C117.396 129.275 68.4685 192.753 40.5635 266.053C12.6585 339.354 7.01093 419.232 24.3252 495.726C41.8897 573.149 82.2441 643.582 140.212 697.989C198.18 752.397 271.119 788.298 349.672 801.089C401.506 809.644 454.521 807.902 505.672 795.964C556.822 784.025 605.1 762.124 647.732 731.519C711.58 685.779 760.508 622.3 788.413 549C816.318 475.7 821.965 395.822 804.651 319.327C792.863 267.311 770.667 218.201 739.395 174.938Z" fill="#F9F9F9" fill-opacity="0.08"/>
<path d="M272.14 335.06C272.093 334.995 272.056 334.923 272.031 334.847L250.695 271.345C250.628 271.147 250.642 270.932 250.732 270.744C250.823 270.556 250.983 270.411 251.179 270.339L323.759 243.702C323.86 243.665 323.967 243.648 324.074 243.653C324.182 243.658 324.287 243.685 324.384 243.731C324.481 243.778 324.567 243.843 324.639 243.923C324.71 244.004 324.764 244.098 324.798 244.199L344 301.35C344.063 301.536 344.055 301.739 343.977 301.92C343.9 302.1 343.759 302.246 343.58 302.33L273.134 335.318C272.964 335.398 272.772 335.415 272.59 335.368C272.409 335.321 272.249 335.212 272.14 335.06ZM252.466 271.574L273.268 333.485L342.25 301.182L323.538 245.491L252.466 271.574Z" fill="#F9F9F9" fill-opacity="0.08"/>
<path d="M342.587 302.071C342.54 302.006 342.503 301.935 342.478 301.859L323.276 244.708C323.241 244.604 323.228 244.494 323.237 244.385C323.246 244.276 323.278 244.171 323.329 244.074C323.381 243.978 323.452 243.893 323.538 243.825C323.624 243.758 323.723 243.708 323.829 243.68L399.885 223.309C400.083 223.256 400.294 223.28 400.474 223.376C400.654 223.473 400.791 223.635 400.856 223.828L417.185 272.431C417.25 272.625 417.238 272.837 417.152 273.023C417.065 273.209 416.91 273.355 416.719 273.43L343.536 302.349C343.369 302.415 343.185 302.423 343.013 302.373C342.842 302.323 342.691 302.216 342.587 302.071ZM325.07 245.006L343.732 300.548L415.42 272.22L399.572 225.052L325.07 245.006Z" fill="#F9F9F9" fill-opacity="0.08"/>
<path d="M323.384 244.921C323.315 244.825 323.268 244.714 323.246 244.597L313.209 189.641C313.19 189.535 313.192 189.428 313.215 189.323C313.239 189.219 313.283 189.12 313.345 189.033C313.407 188.946 313.485 188.872 313.576 188.816C313.668 188.76 313.769 188.722 313.875 188.706L391.432 176.555C391.639 176.523 391.85 176.573 392.021 176.694C392.192 176.815 392.309 176.998 392.347 177.204L400.884 223.94C400.92 224.138 400.88 224.342 400.772 224.512C400.665 224.682 400.497 224.805 400.302 224.857L324.245 245.228C324.087 245.27 323.921 245.263 323.767 245.208C323.613 245.154 323.479 245.053 323.384 244.921ZM314.938 190.162L324.671 243.454L399.17 223.501L390.907 178.26L314.938 190.162Z" fill="#F9F9F9" fill-opacity="0.08"/>
<path d="M399.44 224.549C399.371 224.453 399.324 224.342 399.303 224.226L390.766 177.489C390.745 177.377 390.749 177.261 390.777 177.15C390.805 177.039 390.857 176.935 390.928 176.846C391 176.756 391.09 176.683 391.192 176.631C391.295 176.58 391.407 176.55 391.522 176.545L469.961 173.242C470.154 173.234 470.345 173.296 470.496 173.416C470.648 173.537 470.751 173.709 470.785 173.899L477.492 210.618C477.511 210.722 477.509 210.829 477.487 210.932C477.464 211.035 477.422 211.133 477.361 211.22C477.3 211.306 477.223 211.38 477.134 211.437C477.044 211.494 476.945 211.532 476.84 211.551L400.231 224.872C400.082 224.898 399.929 224.881 399.789 224.824C399.649 224.767 399.528 224.672 399.44 224.549ZM392.512 178.108L400.741 223.157L475.767 210.111L469.33 174.872L392.512 178.108Z" fill="#F9F9F9" fill-opacity="0.08"/>
<path d="M250.804 271.557C250.735 271.461 250.688 271.35 250.666 271.234L239.513 210.169C239.477 209.973 239.516 209.77 239.622 209.601C239.729 209.432 239.894 209.308 240.087 209.254L313.783 188.725C313.891 188.695 314.004 188.687 314.114 188.703C314.225 188.719 314.331 188.758 314.426 188.817C314.521 188.876 314.602 188.955 314.665 189.047C314.727 189.139 314.77 189.243 314.79 189.353L324.827 244.31C324.861 244.495 324.828 244.687 324.734 244.851C324.64 245.014 324.492 245.14 324.314 245.205L251.734 271.842C251.569 271.903 251.389 271.907 251.221 271.856C251.053 271.805 250.907 271.7 250.804 271.557ZM241.225 210.601L252.076 270.009L323.125 243.934L313.368 190.504L241.225 210.601Z" fill="#F9F9F9" fill-opacity="0.08"/>
<path d="M184.489 303.437C184.419 303.341 184.372 303.23 184.351 303.113L172.513 238.289C172.48 238.11 172.51 237.924 172.597 237.764C172.684 237.604 172.823 237.478 172.991 237.407L239.991 209.287C240.102 209.241 240.222 209.22 240.342 209.226C240.462 209.231 240.58 209.264 240.686 209.321C240.791 209.379 240.883 209.459 240.954 209.556C241.024 209.653 241.072 209.765 241.094 209.883L252.247 270.947C252.278 271.12 252.252 271.298 252.172 271.454C252.093 271.61 251.964 271.736 251.805 271.812L185.491 303.692C185.32 303.774 185.126 303.793 184.943 303.747C184.76 303.7 184.599 303.59 184.489 303.437ZM174.209 238.635L185.743 301.791L250.556 270.633L239.692 211.152L174.209 238.635Z" fill="#F9F9F9" fill-opacity="0.08"/>
<path d="M313.347 189.964C313.251 189.829 313.198 189.669 313.197 189.504L312.712 138.854C312.71 138.649 312.788 138.45 312.928 138.3C313.069 138.15 313.262 138.059 313.468 138.047L391.096 133.472C391.205 133.466 391.314 133.481 391.416 133.518C391.518 133.555 391.612 133.612 391.692 133.686C391.771 133.761 391.835 133.85 391.879 133.949C391.923 134.049 391.946 134.156 391.947 134.265L392.36 177.339C392.362 177.531 392.294 177.717 392.17 177.864C392.045 178.011 391.872 178.108 391.682 178.138L314.125 190.288C313.978 190.311 313.827 190.293 313.69 190.236C313.553 190.178 313.434 190.084 313.347 189.964ZM314.326 139.602L314.794 188.561L390.747 176.662L390.348 135.121L314.326 139.602Z" fill="#F9F9F9" fill-opacity="0.08"/>
<path d="M390.904 177.813C390.808 177.679 390.755 177.519 390.753 177.354L390.34 134.279C390.339 134.169 390.361 134.059 390.405 133.957C390.449 133.855 390.513 133.763 390.594 133.687C390.676 133.611 390.772 133.553 390.877 133.516C390.981 133.48 391.093 133.465 391.204 133.473L469.733 139.399C469.933 139.414 470.121 139.504 470.259 139.65C470.396 139.797 470.474 139.99 470.476 140.191L470.798 174.035C470.8 174.243 470.721 174.444 470.578 174.594C470.434 174.745 470.238 174.834 470.03 174.843L391.591 178.147C391.483 178.151 391.376 178.134 391.275 178.096C391.174 178.059 391.082 178.001 391.003 177.927C390.967 177.892 390.934 177.854 390.904 177.813ZM391.955 135.137L392.352 176.511L469.184 173.275L468.876 140.941L391.955 135.137Z" fill="#F9F9F9" fill-opacity="0.08"/>
<path d="M239.651 210.494C239.554 210.36 239.502 210.199 239.5 210.034L238.963 153.754C238.961 153.568 239.024 153.387 239.142 153.242C239.259 153.097 239.424 152.998 239.606 152.961L313.356 138.062C313.472 138.039 313.592 138.041 313.707 138.069C313.822 138.097 313.929 138.15 314.021 138.225C314.113 138.299 314.187 138.393 314.239 138.499C314.29 138.606 314.318 138.722 314.319 138.84L314.803 189.489C314.805 189.666 314.748 189.838 314.642 189.978C314.536 190.119 314.386 190.221 314.216 190.269L240.52 210.798C240.401 210.831 240.276 210.837 240.155 210.814C240.034 210.791 239.92 210.741 239.821 210.667C239.756 210.618 239.698 210.56 239.651 210.494ZM240.576 154.4L241.097 208.974L313.191 188.89L312.722 139.825L240.576 154.4Z" fill="#F9F9F9" fill-opacity="0.08"/>
<path d="M126.99 339.336C126.92 339.239 126.873 339.129 126.852 339.012L114.78 272.916C114.751 272.756 114.771 272.591 114.839 272.443C114.906 272.295 115.017 272.17 115.157 272.087L172.89 237.46C173.001 237.393 173.127 237.354 173.257 237.347C173.387 237.339 173.516 237.363 173.635 237.416C173.753 237.47 173.857 237.551 173.937 237.653C174.017 237.756 174.071 237.876 174.094 238.003L185.933 302.828C185.961 302.985 185.942 303.148 185.877 303.295C185.812 303.441 185.705 303.565 185.569 303.65L128.069 339.548C127.895 339.656 127.688 339.694 127.487 339.655C127.287 339.615 127.109 339.501 126.99 339.336ZM116.461 273.175L128.22 337.562L184.254 302.58L172.722 239.431L116.461 273.175Z" fill="#F9F9F9" fill-opacity="0.08"/>
<path d="M172.651 238.614C172.555 238.479 172.502 238.319 172.501 238.154L171.928 178.406C171.926 178.241 171.976 178.079 172.07 177.943C172.164 177.807 172.297 177.704 172.453 177.646L239.488 152.995C239.609 152.95 239.739 152.936 239.867 152.952C239.994 152.968 240.117 153.014 240.223 153.087C240.329 153.16 240.416 153.258 240.476 153.371C240.536 153.485 240.569 153.611 240.57 153.739L241.107 210.019C241.109 210.178 241.063 210.334 240.975 210.467C240.888 210.6 240.763 210.704 240.616 210.765L173.616 238.885C173.448 238.955 173.261 238.967 173.086 238.918C172.911 238.868 172.758 238.761 172.651 238.614ZM173.54 178.955L174.096 236.944L239.495 209.496L238.974 154.892L173.54 178.955Z" fill="#F9F9F9" fill-opacity="0.08"/>
<path d="M390.492 134.739C390.427 134.65 390.382 134.548 390.359 134.44C390.336 134.332 390.335 134.22 390.357 134.112L398.084 96.354C398.126 96.1486 398.247 95.9678 398.421 95.8504C398.595 95.7331 398.809 95.6885 399.015 95.7263L475.887 109.745C475.992 109.764 476.092 109.804 476.182 109.863C476.271 109.921 476.348 109.996 476.408 110.084C476.468 110.173 476.51 110.272 476.531 110.377C476.551 110.481 476.551 110.589 476.53 110.693L470.46 140.358C470.421 140.55 470.314 140.72 470.158 140.837C470.002 140.955 469.808 141.012 469.613 140.997L391.084 135.071C390.97 135.063 390.86 135.03 390.76 134.976C390.659 134.921 390.572 134.846 390.503 134.755L390.492 134.739ZM399.501 97.4435L392.114 133.542L469.028 139.346L474.792 111.174L399.501 97.4435Z" fill="#F9F9F9" fill-opacity="0.08"/>
<path d="M312.863 139.314C312.798 139.225 312.753 139.123 312.73 139.015C312.707 138.907 312.706 138.795 312.728 138.687L321.813 94.2881C321.851 94.1035 321.953 93.9381 322.101 93.8209C322.248 93.7037 322.433 93.6424 322.622 93.6476L398.892 95.7134C399.009 95.7166 399.124 95.7453 399.229 95.7975C399.334 95.8498 399.426 95.9244 399.499 96.016C399.572 96.1076 399.624 96.214 399.652 96.3277C399.679 96.4415 399.681 96.5598 399.658 96.6745L391.931 134.433C391.895 134.606 391.804 134.762 391.67 134.878C391.536 134.993 391.368 135.062 391.192 135.072L313.563 139.647C313.44 139.655 313.317 139.634 313.204 139.586C313.09 139.538 312.989 139.465 312.909 139.372C312.892 139.354 312.877 139.334 312.863 139.314ZM323.253 95.2676L314.511 137.986L390.48 133.509L397.892 97.2892L323.253 95.2676Z" fill="#F9F9F9" fill-opacity="0.08"/>
<path d="M239.114 154.213C239.049 154.124 239.004 154.022 238.981 153.914C238.958 153.806 238.957 153.694 238.979 153.586L249.073 104.254C249.106 104.091 249.189 103.943 249.311 103.83C249.432 103.716 249.586 103.643 249.751 103.621L322.491 93.6546C322.618 93.6372 322.748 93.6504 322.869 93.6932C322.99 93.7359 323.099 93.807 323.186 93.9005C323.274 93.9939 323.338 94.1069 323.373 94.2301C323.408 94.3533 323.413 94.4831 323.387 94.6085L314.302 139.007C314.271 139.162 314.195 139.303 314.083 139.414C313.972 139.525 313.83 139.601 313.675 139.633L239.926 154.532C239.774 154.562 239.617 154.549 239.473 154.492C239.329 154.436 239.204 154.339 239.114 154.213ZM250.533 105.131L240.796 152.721L312.834 138.167L321.586 95.3957L250.533 105.131Z" fill="#F9F9F9" fill-opacity="0.08"/>
<path d="M114.918 273.24C114.821 273.106 114.769 272.945 114.767 272.78L114.183 211.864C114.181 211.722 114.218 211.583 114.288 211.46C114.358 211.337 114.46 211.235 114.582 211.163L172.327 177.705C172.448 177.635 172.586 177.597 172.727 177.597C172.867 177.596 173.006 177.632 173.128 177.702C173.25 177.771 173.352 177.871 173.423 177.992C173.494 178.113 173.533 178.25 173.534 178.391L174.107 238.139C174.108 238.278 174.073 238.415 174.005 238.537C173.937 238.659 173.838 238.761 173.718 238.833L115.985 273.459C115.812 273.563 115.606 273.598 115.408 273.557C115.211 273.517 115.036 273.403 114.918 273.24ZM115.794 212.315L116.361 271.364L172.496 237.695L171.941 179.782L115.794 212.315Z" fill="#F9F9F9" fill-opacity="0.08"/>
<path d="M172.079 178.865C172.014 178.776 171.969 178.674 171.945 178.566C171.922 178.458 171.922 178.346 171.944 178.238L182.66 125.866C182.689 125.727 182.753 125.599 182.848 125.493C182.942 125.387 183.063 125.309 183.198 125.265L249.611 103.653C249.745 103.61 249.887 103.602 250.025 103.631C250.162 103.659 250.29 103.724 250.395 103.817C250.5 103.91 250.578 104.029 250.623 104.162C250.667 104.295 250.676 104.438 250.647 104.575L240.554 153.907C240.526 154.041 240.465 154.165 240.376 154.269C240.287 154.372 240.173 154.451 240.045 154.499L173.009 179.15C172.844 179.211 172.664 179.216 172.496 179.164C172.328 179.113 172.181 179.008 172.079 178.865ZM184.141 126.643L173.807 177.149L239.069 153.149L248.797 105.604L184.141 126.643Z" fill="#F9F9F9" fill-opacity="0.08"/>
<path d="M321.947 94.9155C321.935 94.8977 321.922 94.879 321.911 94.86C321.842 94.7444 321.802 94.6131 321.797 94.4784C321.792 94.3437 321.821 94.2099 321.882 94.0893L340.187 57.6486C340.26 57.5033 340.376 57.3836 340.518 57.3054C340.661 57.2272 340.825 57.1942 340.987 57.2109L414.52 64.729C414.65 64.7416 414.774 64.7856 414.883 64.8574C414.992 64.9291 415.081 65.0264 415.143 65.1406C415.206 65.2543 415.239 65.3815 415.242 65.5112C415.244 65.6409 415.215 65.7692 415.157 65.8851L399.588 96.8733C399.52 97.0095 399.414 97.1234 399.283 97.2016C399.152 97.2798 399.001 97.3191 398.848 97.315L322.578 95.2492C322.455 95.2458 322.333 95.214 322.224 95.1561C322.114 95.0982 322.02 95.0159 321.947 94.9155ZM341.375 58.8613L323.884 93.6816L398.381 95.6995L413.199 66.2046L341.375 58.8613Z" fill="#F9F9F9" fill-opacity="0.08"/>
<path d="M249.207 104.882C249.122 104.763 249.071 104.624 249.059 104.478C249.048 104.333 249.076 104.187 249.141 104.056L269.481 63.5649C269.542 63.4421 269.634 63.3372 269.748 63.2603C269.863 63.1835 269.994 63.1371 270.132 63.1257L340.838 57.2101C340.98 57.1961 341.124 57.2212 341.253 57.2828C341.382 57.3443 341.492 57.4399 341.57 57.5591C341.65 57.677 341.698 57.814 341.707 57.9561C341.716 58.0982 341.687 58.2401 341.624 58.3674L323.319 94.8079C323.26 94.9242 323.174 95.0246 323.068 95.1003C322.962 95.176 322.839 95.2248 322.71 95.2425L249.969 105.209C249.825 105.228 249.677 105.208 249.543 105.151C249.409 105.093 249.293 105 249.207 104.882ZM270.715 64.6845L251.261 103.414L322.071 93.7126L339.545 58.9259L270.715 64.6845Z" fill="#F9F9F9" fill-opacity="0.08"/>
<path d="M68.673 313.047C68.5764 312.913 68.5238 312.753 68.5222 312.587L67.9476 252.841C67.9465 252.726 67.9699 252.613 68.0164 252.508C68.0628 252.404 68.1312 252.31 68.217 252.234L114.452 211.257C114.568 211.155 114.71 211.088 114.862 211.065C115.015 211.041 115.171 211.062 115.312 211.124C115.453 211.187 115.573 211.288 115.657 211.417C115.742 211.545 115.788 211.695 115.79 211.849L116.374 272.765C116.375 272.882 116.351 272.997 116.303 273.103C116.255 273.209 116.184 273.303 116.096 273.379L69.8505 313.187C69.7661 313.26 69.6674 313.314 69.5607 313.346C69.4541 313.379 69.3418 313.389 69.231 313.376C69.1202 313.363 69.0134 313.327 68.9173 313.27C68.8213 313.214 68.738 313.138 68.673 313.047ZM69.5576 253.19L70.1122 310.844L114.764 272.409L114.2 213.625L69.5576 253.19Z" fill="#F9F9F9" fill-opacity="0.08"/>
<path d="M114.334 212.324C114.269 212.235 114.224 212.133 114.2 212.025C114.177 211.917 114.177 211.805 114.199 211.697L125.127 158.3C125.15 158.187 125.196 158.081 125.264 157.989C125.332 157.896 125.418 157.819 125.518 157.763L183.051 125.33C183.186 125.254 183.339 125.218 183.493 125.227C183.646 125.236 183.795 125.289 183.919 125.379C184.044 125.469 184.14 125.594 184.196 125.737C184.252 125.88 184.265 126.037 184.234 126.187L173.518 178.559C173.495 178.67 173.449 178.775 173.383 178.866C173.317 178.958 173.232 179.035 173.134 179.092L115.39 212.55C115.217 212.65 115.013 212.682 114.818 212.641C114.623 212.599 114.45 212.486 114.334 212.324ZM126.628 158.978L116.131 210.267L172.015 177.886L182.307 127.59L126.628 158.978Z" fill="#F9F9F9" fill-opacity="0.08"/>
<path d="M340.253 58.4755C340.21 58.4152 340.175 58.3491 340.15 58.2791C340.098 58.1369 340.088 57.9831 340.121 57.8356C340.154 57.688 340.228 57.5526 340.334 57.4452L367.157 30.365C367.247 30.2737 367.358 30.2055 367.481 30.1659C367.603 30.1264 367.733 30.1167 367.86 30.1377L437.382 41.7042C437.527 41.7286 437.663 41.7922 437.774 41.888C437.886 41.9839 437.969 42.1084 438.014 42.248C438.06 42.3876 438.066 42.537 438.032 42.6798C437.998 42.8225 437.925 42.9532 437.822 43.0576L415.011 66.0895C414.926 66.1747 414.824 66.2399 414.711 66.2804C414.598 66.3209 414.477 66.3356 414.358 66.3234L340.824 58.8053C340.711 58.7937 340.601 58.7584 340.503 58.7015C340.405 58.6446 340.319 58.5676 340.253 58.4755ZM368.007 31.7867L342.656 57.3818L414.138 64.6903L435.59 43.0307L368.007 31.7867Z" fill="#F9F9F9" fill-opacity="0.08"/>
<path d="M182.794 126.493C182.709 126.374 182.658 126.235 182.646 126.089C182.634 125.943 182.663 125.797 182.729 125.667L204.322 82.6838C204.371 82.5856 204.441 82.4986 204.525 82.4282C204.61 82.3578 204.708 82.3054 204.813 82.2744L269.972 63.1544C270.122 63.1104 270.282 63.1111 270.432 63.1563C270.582 63.2016 270.715 63.2896 270.815 63.4093C270.916 63.5291 270.979 63.6756 270.997 63.8306C271.015 63.9857 270.987 64.1426 270.917 64.2822L250.578 104.773C250.531 104.868 250.465 104.952 250.384 105.021C250.304 105.09 250.21 105.143 250.109 105.176L183.696 126.788C183.545 126.837 183.384 126.84 183.231 126.797C183.078 126.755 182.941 126.668 182.838 126.548C182.823 126.53 182.808 126.512 182.794 126.493ZM205.602 83.7133L185.027 124.669L249.292 103.756L268.653 65.2122L205.602 83.7133Z" fill="#F9F9F9" fill-opacity="0.08"/>
<path d="M68.0982 253.301C68.0336 253.211 67.9883 253.109 67.9651 253.001C67.942 252.893 67.9414 252.781 67.9636 252.673L78.6799 200.301C78.7141 200.134 78.8008 199.983 78.9274 199.868L125.374 157.866C125.499 157.752 125.658 157.681 125.826 157.663C125.994 157.645 126.164 157.68 126.311 157.763C126.458 157.847 126.575 157.975 126.645 158.128C126.715 158.282 126.735 158.454 126.701 158.62L115.773 212.017C115.738 212.186 115.65 212.34 115.52 212.456L69.2846 253.433C69.2005 253.507 69.1016 253.563 68.9944 253.597C68.8871 253.631 68.7739 253.642 68.6621 253.63C68.5502 253.617 68.4422 253.582 68.3451 253.525C68.248 253.468 68.1638 253.392 68.0982 253.301ZM80.2015 200.879L70.0203 250.636L114.252 211.435L124.636 160.697L80.2015 200.879Z" fill="#F9F9F9" fill-opacity="0.08"/>
<path d="M269.547 64.3909C269.518 64.3508 269.493 64.3082 269.472 64.2635C269.402 64.1152 269.379 63.9491 269.407 63.7876C269.435 63.6262 269.512 63.4772 269.628 63.3607L299.433 33.271C299.576 33.1271 299.767 33.0424 299.97 33.0338L367.693 30.1276C367.855 30.1207 368.014 30.1624 368.151 30.2472C368.289 30.3321 368.397 30.4562 368.462 30.6033C368.528 30.7505 368.547 30.9139 368.518 31.0723C368.489 31.2306 368.413 31.3766 368.3 31.4911L341.477 58.5713C341.342 58.7072 341.164 58.7906 340.973 58.8063L270.266 64.722C270.128 64.7337 269.989 64.7093 269.863 64.6512C269.736 64.5932 269.628 64.5035 269.547 64.3909ZM300.355 34.6213L272.299 62.944L340.542 57.2344L365.719 31.8159L300.355 34.6213Z" fill="#F9F9F9" fill-opacity="0.08"/>
<path d="M125.262 158.927C125.176 158.808 125.125 158.668 125.113 158.523C125.102 158.377 125.13 158.231 125.196 158.101L147.212 114.274C147.284 114.13 147.398 114.011 147.54 113.933L204.651 82.3432C204.801 82.2602 204.974 82.2273 205.144 82.2494C205.314 82.2715 205.473 82.3473 205.597 82.4658C205.721 82.5843 205.803 82.7393 205.832 82.908C205.862 83.0766 205.836 83.2502 205.759 83.4032L184.166 126.386C184.094 126.528 183.982 126.646 183.843 126.724L126.31 159.157C126.16 159.242 125.987 159.276 125.816 159.255C125.645 159.234 125.485 159.159 125.361 159.04C125.324 159.006 125.291 158.968 125.262 158.927ZM148.537 115.214L127.813 156.469L182.839 125.449L203.159 85.0012L148.537 115.214Z" fill="#F9F9F9" fill-opacity="0.08"/>
<path d="M367.076 31.3951C367 31.2908 366.952 31.1701 366.933 31.0431C366.909 30.875 366.938 30.7036 367.018 30.5535C367.097 30.4034 367.223 30.2824 367.376 30.2079L401.686 13.5253C401.849 13.446 402.033 13.424 402.21 13.4628L466.601 27.5262C466.764 27.562 466.911 27.6474 467.023 27.7705C467.136 27.8937 467.206 28.0485 467.227 28.2136C467.246 28.3788 467.214 28.5462 467.134 28.6923C467.054 28.8384 466.931 28.9561 466.781 29.029L437.602 43.2148C437.452 43.2876 437.283 43.3122 437.118 43.2849L367.596 31.7185C367.387 31.6836 367.199 31.5673 367.076 31.3951ZM402.14 15.0874L370.339 30.5502L437.128 41.6619L464 28.5984L402.14 15.0874Z" fill="#F9F9F9" fill-opacity="0.08"/>
<path d="M204.388 83.5113C204.375 83.4931 204.362 83.4744 204.351 83.4549C204.259 83.3024 204.221 83.124 204.243 82.9476C204.264 82.7712 204.343 82.607 204.469 82.4806L236.108 50.5368C236.207 50.4365 236.331 50.3641 236.468 50.327L299.792 33.0613C299.963 33.0147 300.144 33.0257 300.308 33.0923C300.472 33.1589 300.609 33.2775 300.698 33.4298C300.787 33.582 300.824 33.7593 300.802 33.9342C300.78 34.1092 300.7 34.272 300.576 34.3973L270.77 64.487C270.675 64.5836 270.556 64.6543 270.426 64.6925L205.267 83.8124C205.107 83.8592 204.937 83.8554 204.779 83.8014C204.622 83.7475 204.485 83.6461 204.388 83.5113ZM237.099 51.816L207.799 81.3991L269.773 63.2136L297.33 35.3943L237.099 51.816Z" fill="#F9F9F9" fill-opacity="0.08"/>
<path d="M35.1517 300.223C35.087 300.133 35.0416 300.031 35.0184 299.923C34.9952 299.815 34.9947 299.703 35.0168 299.595L45.1122 250.262C45.1331 250.16 45.1737 250.063 45.2318 249.976L78.8 200.015C78.9036 199.861 79.0576 199.748 79.2359 199.694C79.4141 199.641 79.6053 199.651 79.7771 199.722C79.9488 199.794 80.0903 199.923 80.1774 200.087C80.2645 200.251 80.2918 200.44 80.2547 200.622L69.5382 252.993C69.5162 253.101 69.4723 253.203 69.4093 253.293L36.4621 300.215C36.3885 300.32 36.2907 300.406 36.1771 300.465C36.0635 300.525 35.9373 300.556 35.809 300.557C35.6807 300.557 35.5541 300.528 35.4398 300.469C35.3254 300.411 35.2267 300.327 35.1517 300.223L35.1517 300.223ZM46.6548 250.738L37.3645 296.136L67.9974 252.51L77.8648 204.286L46.6548 250.738Z" fill="#F9F9F9" fill-opacity="0.08"/>
<path d="M299.353 34.3011C299.284 34.2064 299.238 34.098 299.216 33.9834C299.194 33.8689 299.198 33.751 299.226 33.638C299.255 33.525 299.308 33.4195 299.382 33.3291C299.455 33.2385 299.548 33.1651 299.653 33.114L337.775 14.5764C337.881 14.5252 337.996 14.4975 338.114 14.4951L402.025 13.4438C402.208 13.4411 402.386 13.5005 402.53 13.6122C402.675 13.7239 402.777 13.8813 402.82 14.0585C402.862 14.2358 402.843 14.4222 402.765 14.5871C402.687 14.752 402.555 14.8854 402.391 14.9652L368.081 31.6479C367.981 31.6963 367.873 31.7236 367.763 31.7281L300.04 34.6343C299.907 34.6401 299.774 34.6127 299.654 34.5545C299.534 34.4963 299.43 34.4093 299.353 34.3011ZM338.319 16.0947L303.825 32.8682L367.527 30.1347L398.435 15.1056L338.319 16.0947Z" fill="#F9F9F9" fill-opacity="0.08"/>
<path d="M78.8144 200.929C78.7289 200.81 78.6776 200.67 78.666 200.525C78.6545 200.379 78.683 200.233 78.7486 200.102L100.342 157.119C100.386 157.032 100.445 156.954 100.517 156.888L147.386 114.042C147.525 113.915 147.703 113.841 147.891 113.832C148.079 113.824 148.263 113.881 148.413 113.993C148.563 114.106 148.669 114.268 148.712 114.45C148.754 114.633 148.732 114.824 148.648 114.992L126.632 158.818C126.587 158.907 126.527 158.986 126.453 159.053L80.0066 201.055C79.9227 201.131 79.8237 201.188 79.7161 201.223C79.6085 201.258 79.4947 201.27 79.3821 201.258C79.2696 201.246 79.1608 201.211 79.063 201.154C78.9651 201.097 78.8804 201.02 78.8144 200.929ZM101.712 157.969L82.1095 196.99L125.263 157.966L145.258 118.162L101.712 157.969Z" fill="#F9F9F9" fill-opacity="0.08"/>
<path d="M147.277 115.1C147.166 114.946 147.114 114.758 147.129 114.57C147.144 114.381 147.225 114.204 147.358 114.07L179.617 81.5014C179.672 81.4463 179.734 81.3995 179.802 81.3623L236.293 50.3975C236.462 50.3048 236.659 50.2759 236.848 50.3162C237.036 50.3564 237.204 50.4631 237.321 50.6166C237.44 50.7689 237.5 50.96 237.487 51.153C237.474 51.3461 237.39 51.5277 237.251 51.6629L205.612 83.6066C205.558 83.661 205.497 83.7074 205.43 83.7443L148.32 115.334C148.15 115.427 147.953 115.457 147.764 115.417C147.575 115.377 147.406 115.27 147.289 115.117L147.277 115.1ZM180.678 82.7107L152.435 111.225L204.55 82.3987L232.228 54.4545L180.678 82.7107Z" fill="#F9F9F9" fill-opacity="0.08"/>
<path d="M236.028 51.5674C235.96 51.4726 235.913 51.3641 235.891 51.2496C235.869 51.135 235.873 51.017 235.901 50.904C235.93 50.7909 235.983 50.6854 236.057 50.5948C236.13 50.5043 236.223 50.4308 236.328 50.3796L276.798 30.7025C276.845 30.6798 276.894 30.6616 276.944 30.648L337.921 14.5217C338.114 14.4712 338.319 14.494 338.496 14.5854C338.673 14.6769 338.81 14.8306 338.88 15.0168C338.95 15.2033 338.948 15.409 338.873 15.5938C338.799 15.7786 338.659 15.9293 338.48 16.0164L300.357 34.554C300.312 34.5759 300.265 34.5936 300.217 34.6069L236.892 51.8726C236.734 51.9157 236.567 51.9096 236.412 51.855C236.258 51.8004 236.123 51.7001 236.028 51.5674ZM277.432 32.1771L244.744 48.0703L299.72 33.0808L330.371 18.1769L277.432 32.1771Z" fill="#F9F9F9" fill-opacity="0.08"/>
<path d="M45.2467 250.89C45.1611 250.771 45.1098 250.632 45.0981 250.486C45.0865 250.34 45.1151 250.194 45.1807 250.063L65.5198 209.572C65.5345 209.544 65.5506 209.516 65.5682 209.489L100.391 157.036C100.504 156.866 100.678 156.745 100.877 156.698C101.076 156.652 101.286 156.683 101.463 156.785C101.64 156.887 101.772 157.053 101.83 157.249C101.889 157.445 101.871 157.655 101.779 157.838L80.1855 200.821C80.1704 200.85 80.1535 200.88 80.1349 200.907L46.5667 250.869C46.4944 250.976 46.3972 251.064 46.2833 251.126C46.1693 251.188 46.0421 251.221 45.9124 251.223C45.7828 251.225 45.6545 251.196 45.5386 251.138C45.4227 251.08 45.3225 250.995 45.2467 250.89ZM66.935 210.334L52.3248 239.419L78.7717 200.057L94.3694 169.009L66.935 210.334Z" fill="#F9F9F9" fill-opacity="0.08"/>
<path d="M337.474 15.7627C337.389 15.6439 337.337 15.5039 337.326 15.3581C337.31 15.1547 337.373 14.953 337.501 14.794C337.629 14.635 337.813 14.5307 338.016 14.5024L382.993 8.23568C383.028 8.23109 383.063 8.22859 383.098 8.22828L442.511 7.80333C442.714 7.8018 442.911 7.87764 443.061 8.01553C443.211 8.15341 443.303 8.34302 443.318 8.54581C443.333 8.74867 443.27 8.94957 443.142 9.1078C443.013 9.26603 442.83 9.36977 442.628 9.39798L402.15 15.0382C402.117 15.0427 402.085 15.0453 402.052 15.0461L338.141 16.0973C338.011 16.0994 337.882 16.07 337.766 16.0118C337.65 15.9535 337.55 15.868 337.474 15.7627ZM383.163 9.83023L351.232 14.2792L401.976 13.4446L430.335 9.4925L383.163 9.83023Z" fill="#F9F9F9" fill-opacity="0.08"/>
<path d="M100.408 157.945C100.297 157.792 100.245 157.604 100.26 157.416C100.275 157.227 100.356 157.05 100.489 156.916L132.131 124.971L179.645 81.4744C179.8 81.3333 180.004 81.258 180.213 81.2645C180.422 81.2711 180.621 81.3589 180.766 81.5094C180.912 81.6598 180.993 81.861 180.991 82.0699C180.99 82.2789 180.907 82.479 180.76 82.6278L148.501 115.196L101.604 158.07C101.52 158.146 101.421 158.204 101.313 158.24C101.205 158.275 101.091 158.288 100.978 158.276C100.865 158.264 100.755 158.229 100.657 158.172C100.559 158.115 100.474 158.037 100.408 157.945ZM156.545 104.795L133.246 126.124L124.389 135.066L147.387 114.042L156.545 104.795Z" fill="#F9F9F9" fill-opacity="0.08"/>
<path d="M179.537 82.5327C179.47 82.4406 179.424 82.3355 179.402 82.2244C179.379 82.1133 179.38 81.9986 179.405 81.888C179.43 81.7774 179.478 81.6734 179.547 81.5828C179.615 81.4922 179.702 81.4171 179.801 81.3625L236.293 50.3975L276.798 30.7026C276.987 30.611 277.203 30.5964 277.402 30.6621C277.601 30.7277 277.767 30.8683 277.863 31.0539C277.96 31.2395 277.98 31.4553 277.919 31.6554C277.858 31.8554 277.722 32.0238 277.538 32.1246L221.84 62.7026L180.541 82.7847C180.371 82.8676 180.176 82.8877 179.993 82.8416C179.809 82.7954 179.647 82.686 179.537 82.5327ZM248.393 46.2962L237.032 51.8198L209.354 66.9921L221.1 61.2807L248.393 46.2962Z" fill="#F9F9F9" fill-opacity="0.08"/>
</g>
</g>
<defs>
<clipPath id="clip0_2109:8944">
<rect width="375" height="238" fill="white"/>
</clipPath>
<clipPath id="clip1_2109:8944">
<rect width="805.116" height="805.841" fill="white" transform="matrix(0.584254 0.811571 -0.813126 0.582087 506.919 -153.715)"/>
</clipPath>
</defs>
</svg>
