<svg width="35" height="20" viewBox="0 0 35 20" fill="none" xmlns="http://www.w3.org/2000/svg">
    <path d="M10 20C15.5228 20 20 15.5228 20 10C20 4.47715 15.5228 0 10 0C4.47715 0 0 4.47715 0 10C0 15.5228 4.47715 20 10 20Z" fill="#26A17B"/>
    <path d="M11.0643 10.9228C10.9951 10.9228 10.6382 10.9485 9.84562 10.9485C9.21057 10.9485 8.76524 10.9308 8.60768 10.9228C6.16556 10.8215 4.34402 10.3906 4.34402 9.88099C4.34402 9.37134 6.16717 8.94691 8.60607 8.83919V10.5C8.76685 10.5112 9.22344 10.5385 9.85527 10.5385C10.6141 10.5385 10.9935 10.5064 11.0627 10.5V8.8408C13.5016 8.95012 15.3167 9.37456 15.3167 9.8826C15.3167 10.3906 13.5 10.8215 11.0643 10.9244V10.9228ZM11.0643 8.6736V7.18324H14.4646V4.91797H5.20736V7.18324H8.60607V8.66877C5.84402 8.79578 3.76685 9.3424 3.76685 9.99835C3.76685 10.6543 5.84562 11.2009 8.60607 11.3295V16.0916H11.0659V11.3295C13.8231 11.2025 15.8971 10.6559 15.8971 9.99996C15.8971 9.34401 13.8231 8.79739 11.0739 8.67038" fill="white"/>
    <path d="M24.9846 19.9449C30.4685 19.9449 34.914 15.4993 34.914 10.0154C34.914 4.53152 30.4685 0.0859375 24.9846 0.0859375C19.5006 0.0859375 15.0551 4.53152 15.0551 10.0154C15.0551 15.4993 19.5006 19.9449 24.9846 19.9449Z" fill="black"/>
    <path d="M30.0465 14.1026L30.9835 13.5621V6.99707L30.0465 7.53907V14.1026Z" fill="url(#paint0_linear_3109_27405)"/>
    <path d="M26.884 15.927L27.821 15.3865V8.82153L26.884 9.36353V15.927Z" fill="url(#paint1_linear_3109_27405)"/>
    <path d="M25.3035 16.8421L26.24 16.3011V9.73657L25.3035 10.2781V16.8421Z" fill="url(#paint2_linear_3109_27405)"/>
    <path d="M28.4645 15.013L29.4015 14.4725V7.90747L28.4645 8.44947V15.013Z" fill="url(#paint3_linear_3109_27405)"/>
    <path d="M18.991 12.4666L18.9855 13.5485L24.6545 16.8585L24.659 15.7765L18.991 12.4666Z" fill="url(#paint4_linear_3109_27405)"/>
    <path d="M19.01 8.81592L19.0045 9.89742L24.6735 13.2079L24.678 12.1254L19.01 8.81592Z" fill="url(#paint5_linear_3109_27405)"/>
    <path d="M19.0175 6.9895L19.0115 8.071L24.681 11.3815L24.6855 10.299L19.0175 6.9895Z" fill="url(#paint6_linear_3109_27405)"/>
    <path d="M19.0024 10.6416L18.9969 11.7231L24.6659 15.0336L24.6704 13.9511L19.0024 10.6416Z" fill="url(#paint7_linear_3109_27405)"/>
    <path d="M25.9225 3.71461L24.9865 3.17261L19.297 6.44811L20.234 6.98961L25.9225 3.71461Z" fill="url(#paint8_linear_3109_27405)"/>
    <path d="M29.0816 5.54517L28.1456 5.00317L22.4561 8.27817L23.3931 8.82017L29.0816 5.54517Z" fill="url(#paint9_linear_3109_27405)"/>
    <path d="M30.663 6.4585L29.727 5.9165L24.0375 9.192L24.9745 9.7335L30.663 6.4585Z" fill="url(#paint10_linear_3109_27405)"/>
    <path d="M27.501 4.6316L26.565 4.0896L20.8755 7.3646L21.8125 7.9066L27.501 4.6316Z" fill="url(#paint11_linear_3109_27405)"/>
    <defs>
        <linearGradient id="paint0_linear_3109_27405" x1="29.8396" y1="7.62546" x2="31.3521" y2="14.1751" gradientUnits="userSpaceOnUse">
            <stop stop-color="#FF6647"/>
            <stop offset="1" stop-color="#FF6647" stop-opacity="0"/>
        </linearGradient>
        <linearGradient id="paint1_linear_3109_27405" x1="26.6772" y1="9.44991" x2="28.1898" y2="15.9995" gradientUnits="userSpaceOnUse">
            <stop stop-color="#FF6647"/>
            <stop offset="1" stop-color="#FF6647" stop-opacity="0"/>
        </linearGradient>
        <linearGradient id="paint2_linear_3109_27405" x1="25.0963" y1="10.3647" x2="26.6089" y2="16.9143" gradientUnits="userSpaceOnUse">
            <stop stop-color="#FF6647"/>
            <stop offset="1" stop-color="#FF6647" stop-opacity="0"/>
        </linearGradient>
        <linearGradient id="paint3_linear_3109_27405" x1="28.2575" y1="8.53571" x2="29.7701" y2="15.0853" gradientUnits="userSpaceOnUse">
            <stop stop-color="#FF6647"/>
            <stop offset="1" stop-color="#FF6647" stop-opacity="0"/>
        </linearGradient>
        <linearGradient id="paint4_linear_3109_27405" x1="24.6751" y1="15.5619" x2="18.2562" y2="13.5659" gradientUnits="userSpaceOnUse">
            <stop stop-color="#FF6647"/>
            <stop offset="1" stop-color="#FF6647" stop-opacity="0"/>
        </linearGradient>
        <linearGradient id="paint5_linear_3109_27405" x1="24.694" y1="11.9108" x2="18.2751" y2="9.91479" gradientUnits="userSpaceOnUse">
            <stop stop-color="#FF6647"/>
            <stop offset="1" stop-color="#FF6647" stop-opacity="0"/>
        </linearGradient>
        <linearGradient id="paint6_linear_3109_27405" x1="24.701" y1="10.0845" x2="18.2821" y2="8.08847" gradientUnits="userSpaceOnUse">
            <stop stop-color="#FF6647"/>
            <stop offset="1" stop-color="#FF6647" stop-opacity="0"/>
        </linearGradient>
        <linearGradient id="paint7_linear_3109_27405" x1="24.6865" y1="13.7367" x2="18.2677" y2="11.7407" gradientUnits="userSpaceOnUse">
            <stop stop-color="#FF6647"/>
            <stop offset="1" stop-color="#FF6647" stop-opacity="0"/>
        </linearGradient>
        <linearGradient id="paint8_linear_3109_27405" x1="20.409" y1="7.13862" x2="25.3303" y2="2.56024" gradientUnits="userSpaceOnUse">
            <stop stop-color="#FF6647"/>
            <stop offset="1" stop-color="#FF6647" stop-opacity="0"/>
        </linearGradient>
        <linearGradient id="paint9_linear_3109_27405" x1="23.5679" y1="8.96898" x2="28.4891" y2="4.39059" gradientUnits="userSpaceOnUse">
            <stop stop-color="#FF6647"/>
            <stop offset="1" stop-color="#FF6647" stop-opacity="0"/>
        </linearGradient>
        <linearGradient id="paint10_linear_3109_27405" x1="25.1492" y1="9.88233" x2="30.0705" y2="5.30395" gradientUnits="userSpaceOnUse">
            <stop stop-color="#FF6647"/>
            <stop offset="1" stop-color="#FF6647" stop-opacity="0"/>
        </linearGradient>
        <linearGradient id="paint11_linear_3109_27405" x1="21.9872" y1="8.05541" x2="26.9084" y2="3.47702" gradientUnits="userSpaceOnUse">
            <stop stop-color="#FF6647"/>
            <stop offset="1" stop-color="#FF6647" stop-opacity="0"/>
        </linearGradient>
    </defs>
</svg>
