<svg width="33" height="27" viewBox="0 0 33 27" fill="none" xmlns="http://www.w3.org/2000/svg">
<path d="M33 3.26588C31.7859 3.80488 30.481 4.16788 29.1115 4.3315C30.5099 3.49413 31.5837 2.16725 32.0884 0.586004C30.7808 1.3615 29.3315 1.92525 27.7887 2.22913C26.5554 0.913253 24.794 0.0910034 22.847 0.0910034C18.4759 0.0910034 15.2639 4.16925 16.2511 8.40288C10.626 8.121 5.6375 5.426 2.29763 1.32988C0.523875 4.37275 1.37775 8.35338 4.39175 10.3691C3.2835 10.3334 2.2385 10.0295 1.32687 9.52213C1.25262 12.6585 3.50075 15.5928 6.75675 16.2459C5.80387 16.5044 4.76025 16.5649 3.69875 16.3614C4.5595 19.0509 7.05925 21.0075 10.0238 21.0625C7.1775 23.2941 3.5915 24.291 0 23.8675C2.99612 25.7884 6.556 26.909 10.3785 26.909C22.9487 26.909 30.0506 16.2926 29.6216 6.77075C30.9444 5.81513 32.0925 4.623 33 3.26588Z" fill="#F9F9F9" fill-opacity="0.5"/>
</svg>
