<svg width="32" height="32" viewBox="0 0 32 32" fill="none" xmlns="http://www.w3.org/2000/svg">
<path d="M16 32C24.8366 32 32 24.8366 32 16C32 7.16344 24.8366 0 16 0C7.16344 0 0 7.16344 0 16C0 24.8366 7.16344 32 16 32Z" fill="#366EDD"/>
<path d="M16 26.6667C10.1084 26.6667 5.33337 21.8917 5.33337 16C5.33337 10.1084 10.1084 5.33337 16 5.33337C21.8917 5.33337 26.6667 10.1084 26.6667 16C26.6667 18.829 25.5429 21.5421 23.5425 23.5425C21.5421 25.5429 18.829 26.6667 16 26.6667ZM15.3646 12.042C14.7809 12.071 14.2292 12.317 13.8177 12.7319C13.4063 13.1468 13.1647 13.7005 13.1405 14.2843C13.1405 15.3827 13.8122 16.0999 15.2375 16.3995L16.236 16.6355C17.2074 16.8624 17.6069 17.1893 17.6069 17.7431C17.6069 18.2968 16.9079 18.8415 16 18.8415C15.6776 18.8711 15.3533 18.8092 15.0644 18.6632C14.7754 18.517 14.5334 18.2926 14.366 18.0153C14.3164 17.9102 14.2381 17.8211 14.1401 17.7585C14.0422 17.6959 13.9285 17.6622 13.8122 17.6613H13.2767C13.2354 17.6689 13.1962 17.6847 13.1611 17.7075C13.126 17.7304 13.0958 17.76 13.0721 17.7945C13.0485 17.8291 13.032 17.868 13.0234 17.9091C13.0149 17.9501 13.0145 17.9924 13.0224 18.0336C13.1529 18.566 13.4562 19.0402 13.885 19.3818C14.3137 19.7235 14.8437 19.9134 15.3918 19.9217V20.6843C15.3918 20.854 15.4592 21.0168 15.5792 21.1368C15.6993 21.2568 15.8621 21.3243 16.0318 21.3243C16.2016 21.3243 16.3643 21.2568 16.4844 21.1368C16.6044 21.0168 16.6718 20.854 16.6718 20.6843V19.9127C17.2917 19.9056 17.8842 19.6569 18.3234 19.2194C18.7626 18.782 19.0136 18.1904 19.0231 17.5705C19.0231 16.4176 18.3603 15.755 16.7898 15.4191L15.882 15.2193C14.9743 14.9924 14.5476 14.6928 14.5476 14.1844C14.5476 13.676 15.0922 13.1132 16 13.1132C16.2859 13.0833 16.5744 13.1369 16.8305 13.2674C17.0866 13.3979 17.2995 13.5997 17.4434 13.8486C17.5018 13.9728 17.5942 14.078 17.7098 14.152C17.8256 14.2258 17.9598 14.2655 18.097 14.2662H18.5238C18.6208 14.2424 18.7046 14.1816 18.7572 14.0967C18.8098 14.0118 18.8271 13.9096 18.8051 13.8122C18.6822 13.3206 18.4071 12.8804 18.0191 12.5544C17.6311 12.2283 17.1501 12.0331 16.6446 11.9967V11.3703C16.6446 11.2005 16.5772 11.0377 16.4571 10.9177C16.3371 10.7976 16.1744 10.7303 16.0046 10.7303C15.8349 10.7303 15.672 10.7976 15.552 10.9177C15.432 11.0377 15.3646 11.2005 15.3646 11.3703V12.042ZM8.00231 16C8.00335 17.6723 8.52972 19.3019 9.50706 20.6588C10.4844 22.0157 11.8633 23.0312 13.4491 23.562H13.5762C13.6846 23.562 13.7885 23.519 13.8651 23.4424C13.9416 23.3657 13.9848 23.2618 13.9848 23.1536V22.9629C13.985 22.7939 13.9352 22.6287 13.8414 22.488C13.7477 22.3474 13.6143 22.2378 13.4582 22.1731C12.2232 21.6746 11.1654 20.8184 10.4205 19.7144C9.6756 18.6105 9.27764 17.3091 9.27764 15.9774C9.27764 14.6456 9.6756 13.3442 10.4205 12.2402C11.1654 11.1362 12.2232 10.28 13.4582 9.78164C13.6136 9.71844 13.7466 9.61053 13.8404 9.47151C13.9342 9.3324 13.9844 9.16857 13.9848 9.00093V8.79209C13.9853 8.7308 13.9711 8.67025 13.9433 8.6156C13.9155 8.56096 13.875 8.51382 13.8251 8.47818C13.7752 8.44255 13.7175 8.41947 13.6568 8.4109C13.596 8.40234 13.5342 8.40854 13.4764 8.42897C11.884 8.9556 10.4981 9.97053 9.51542 11.3296C8.5328 12.6888 8.00335 14.3229 8.00231 16ZM23.9977 16C23.9948 14.3294 23.4676 12.7017 22.4904 11.3467C21.5131 9.9916 20.1352 8.97737 18.551 8.44713H18.4148C18.3016 8.44713 18.1931 8.49208 18.1131 8.5721C18.0331 8.65212 17.9881 8.76064 17.9881 8.8738V9.01C17.9918 9.18502 18.046 9.35533 18.1443 9.50031C18.2425 9.64529 18.3806 9.75871 18.5419 9.82697C19.774 10.3269 20.829 11.1832 21.5718 12.2861C22.3145 13.389 22.7112 14.6885 22.7112 16.0182C22.7112 17.3479 22.3145 18.6474 21.5718 19.7504C20.829 20.8533 19.774 21.7095 18.5419 22.2094C18.3837 22.2784 18.2484 22.391 18.152 22.5341C18.0555 22.6772 18.0018 22.8448 17.9972 23.0174V23.1717C17.998 23.239 18.0147 23.3051 18.0459 23.3647C18.0771 23.4244 18.122 23.4758 18.1769 23.5147C18.2318 23.5536 18.2952 23.5791 18.3617 23.5888C18.4283 23.5987 18.4962 23.5926 18.56 23.5711C20.1455 23.0383 21.5236 22.0207 22.4993 20.6621C23.4752 19.3036 23.9992 17.6728 23.9977 16Z" fill="white"/>
</svg>
