<svg width="20" height="20" viewBox="0 0 20 20" fill="none" xmlns="http://www.w3.org/2000/svg">
<g clip-path="url(#clip0_1282:3564)">
<path d="M19.0055 0.666626L11.2019 6.49996L12.6418 3.06136L19.0055 0.666626Z" fill="#E2761B" stroke="#E2761B" stroke-width="0.0502197" stroke-linecap="round" stroke-linejoin="round"/>
<path d="M0.988403 0.666626L8.73093 6.55523L7.35814 3.06136L0.988403 0.666626Z" fill="#E4761B" stroke="#E4761B" stroke-width="0.0502197" stroke-linecap="round" stroke-linejoin="round"/>
<path d="M16.1989 14.1938L14.1184 17.3991L18.5663 18.6272L19.8414 14.2613L16.1989 14.1938Z" fill="#E4761B" stroke="#E4761B" stroke-width="0.0502197" stroke-linecap="round" stroke-linejoin="round"/>
<path d="M0.164795 14.2613L1.43386 18.6272L5.8817 17.3991L3.80116 14.1938L0.164795 14.2613Z" fill="#E4761B" stroke="#E4761B" stroke-width="0.0502197" stroke-linecap="round" stroke-linejoin="round"/>
<path d="M5.63151 8.77801L4.39294 10.6631L8.81028 10.8596L8.65164 6.0824L5.63151 8.77801Z" fill="#E4761B" stroke="#E4761B" stroke-width="0.0502197" stroke-linecap="round" stroke-linejoin="round"/>
<path d="M14.3623 8.77797L11.2995 6.0271L11.2019 10.8595L15.607 10.6631L14.3623 8.77797Z" fill="#E4761B" stroke="#E4761B" stroke-width="0.0502197" stroke-linecap="round" stroke-linejoin="round"/>
<path d="M5.88159 17.3991L8.53566 16.0974L6.24157 14.2921L5.88159 17.3991Z" fill="#E4761B" stroke="#E4761B" stroke-width="0.0502197" stroke-linecap="round" stroke-linejoin="round"/>
<path d="M11.4583 16.0974L14.1184 17.3991L13.7523 14.2921L11.4583 16.0974Z" fill="#E4761B" stroke="#E4761B" stroke-width="0.0502197" stroke-linecap="round" stroke-linejoin="round"/>
<path d="M14.1184 17.399L11.4583 16.0973L11.6718 17.8412L11.6474 18.5718L14.1184 17.399Z" fill="#D7C1B3" stroke="#D7C1B3" stroke-width="0.0502197" stroke-linecap="round" stroke-linejoin="round"/>
<path d="M5.88159 17.399L8.35262 18.5718L8.33431 17.8412L8.53566 16.0973L5.88159 17.399Z" fill="#D7C1B3" stroke="#D7C1B3" stroke-width="0.0502197" stroke-linecap="round" stroke-linejoin="round"/>
<path d="M8.38933 13.1439L6.18066 12.4869L7.74259 11.7684L8.38933 13.1439Z" fill="#233447" stroke="#233447" stroke-width="0.0502197" stroke-linecap="round" stroke-linejoin="round"/>
<path d="M11.5985 13.1439L12.2513 11.7684L13.8194 12.4869L11.5985 13.1439Z" fill="#233447" stroke="#233447" stroke-width="0.0502197" stroke-linecap="round" stroke-linejoin="round"/>
<path d="M5.88169 17.3991L6.25997 14.1938L3.80115 14.2613L5.88169 17.3991Z" fill="#CD6116" stroke="#CD6116" stroke-width="0.0502197" stroke-linecap="round" stroke-linejoin="round"/>
<path d="M13.7401 14.1938L14.1184 17.3991L16.1989 14.2613L13.7401 14.1938Z" fill="#CD6116" stroke="#CD6116" stroke-width="0.0502197" stroke-linecap="round" stroke-linejoin="round"/>
<path d="M15.607 10.6631L11.2019 10.8596L11.6107 13.1438L12.2574 11.7683L13.8255 12.4868L15.607 10.6631Z" fill="#CD6116" stroke="#CD6116" stroke-width="0.0502197" stroke-linecap="round" stroke-linejoin="round"/>
<path d="M6.18062 12.4868L7.74866 11.7683L8.38928 13.1438L8.81028 10.8596L4.39294 10.6631L6.18062 12.4868Z" fill="#CD6116" stroke="#CD6116" stroke-width="0.0502197" stroke-linecap="round" stroke-linejoin="round"/>
<path d="M4.39294 10.6631L6.24163 14.2921L6.18062 12.4868L4.39294 10.6631Z" fill="#E4751F" stroke="#E4751F" stroke-width="0.0502197" stroke-linecap="round" stroke-linejoin="round"/>
<path d="M13.8254 12.4868L13.7522 14.2921L15.6071 10.6631L13.8254 12.4868Z" fill="#E4751F" stroke="#E4751F" stroke-width="0.0502197" stroke-linecap="round" stroke-linejoin="round"/>
<path d="M8.81027 10.8596L8.38928 13.1439L8.90788 15.8334L9.02991 12.2903L8.81027 10.8596Z" fill="#E4751F" stroke="#E4751F" stroke-width="0.0502197" stroke-linecap="round" stroke-linejoin="round"/>
<path d="M11.202 10.8596L10.9884 12.2842L11.0799 15.8334L11.6107 13.1439L11.202 10.8596Z" fill="#E4751F" stroke="#E4751F" stroke-width="0.0502197" stroke-linecap="round" stroke-linejoin="round"/>
<path d="M11.6108 13.1438L11.08 15.8333L11.4582 16.0973L13.7523 14.2921L13.8255 12.4868L11.6108 13.1438Z" fill="#F6851B" stroke="#F6851B" stroke-width="0.0502197" stroke-linecap="round" stroke-linejoin="round"/>
<path d="M6.18066 12.4868L6.24168 14.2921L8.53575 16.0973L8.90794 15.8333L8.38933 13.1438L6.18066 12.4868Z" fill="#F6851B" stroke="#F6851B" stroke-width="0.0502197" stroke-linecap="round" stroke-linejoin="round"/>
<path d="M11.6473 18.5719L11.6717 17.8412L11.4765 17.663H8.51734L8.33431 17.8412L8.35262 18.5719L5.88159 17.399L6.74188 18.1052L8.49294 19.3333H11.5009L13.2581 18.1052L14.1184 17.399L11.6473 18.5719Z" fill="#C0AD9E" stroke="#C0AD9E" stroke-width="0.0502197" stroke-linecap="round" stroke-linejoin="round"/>
<path d="M11.4582 16.0974L11.0799 15.8334H8.90788L8.53569 16.0974L8.33435 17.8412L8.51739 17.6631H11.4765L11.6718 17.8412L11.4582 16.0974Z" fill="#161616" stroke="#161616" stroke-width="0.0502197" stroke-linecap="round" stroke-linejoin="round"/>
<path d="M19.335 6.88066L20 3.66311L19.0055 0.666626L11.4583 6.30346L14.3624 8.77803L18.4625 9.98154L19.3717 8.91926L18.9812 8.6368L19.6095 8.05961L19.1214 7.67891L19.7499 7.19996L19.335 6.88066Z" fill="#763D16" stroke="#763D16" stroke-width="0.0502197" stroke-linecap="round" stroke-linejoin="round"/>
<path d="M0 3.66311L0.66504 6.88066L0.244051 7.19996L0.872484 7.67891L0.390482 8.05961L1.01891 8.6368L0.628432 8.91926L1.53142 9.98154L5.63149 8.77803L8.53569 6.30346L0.988407 0.666626L0 3.66311Z" fill="#763D16" stroke="#763D16" stroke-width="0.0502197" stroke-linecap="round" stroke-linejoin="round"/>
<path d="M18.4624 9.98147L14.3623 8.77795L15.6071 10.663L13.7522 14.292L16.1988 14.2613H19.8413L18.4624 9.98147Z" fill="#F6851B" stroke="#F6851B" stroke-width="0.0502197" stroke-linecap="round" stroke-linejoin="round"/>
<path d="M5.63154 8.77795L1.53148 9.98147L0.164795 14.2613H3.80116L6.24168 14.292L4.39299 10.663L5.63154 8.77795Z" fill="#F6851B" stroke="#F6851B" stroke-width="0.0502197" stroke-linecap="round" stroke-linejoin="round"/>
<path d="M11.202 10.8597L11.4582 6.30351L12.654 3.0614H7.35815L8.53569 6.30351L8.81025 10.8597L8.90177 12.2965L8.90787 15.8334H11.0799L11.0982 12.2965L11.202 10.8597Z" fill="#F6851B" stroke="#F6851B" stroke-width="0.0502197" stroke-linecap="round" stroke-linejoin="round"/>
</g>
<defs>
<clipPath id="clip0_1282:3564">
<rect width="20" height="20" fill="white"/>
</clipPath>
</defs>
</svg>
